STARTFONT 2.3
FONT -FontForge-Indie Flower-Book-R-Normal--28-280-72-72-P-129-ISO10646-1
SIZE 28 72 72  4
FONTBOUNDINGBOX 35 42 -4 -14
COMMENT "Generated by fontforge, http://fontforge.sourceforge.net"
COMMENT "Copyright (c) 2010, Kimberly Geswein (kimberlygeswein.com)"
STARTPROPERTIES 40
FOUNDRY "FontForge"
FAMILY_NAME "Indie Flower"
WEIGHT_NAME "Book"
SLANT "R"
SETWIDTH_NAME "Normal"
ADD_STYLE_NAME ""
PIXEL_SIZE 28
POINT_SIZE 280
RESOLUTION_X 72
RESOLUTION_Y 72
SPACING "P"
AVERAGE_WIDTH 129
CHARSET_REGISTRY "ISO10646"
CHARSET_ENCODING "1"
FONTNAME_REGISTRY ""
CHARSET_COLLECTIONS "ISO8859-2 ISO8859-9 ISO8859-4 ISO10646-1"
BITS_PER_PIXEL 4
FONT_NAME "IndieFlower"
FACE_NAME "Indie Flower"
COPYRIGHT "Copyright (c) 2010, Kimberly Geswein (kimberlygeswein.com)"
FONT_VERSION "1.001 2010"
FONT_ASCENT 22
FONT_DESCENT 6
UNDERLINE_POSITION -3
UNDERLINE_THICKNESS 2
X_HEIGHT 10
CAP_HEIGHT 14
RAW_ASCENT 799
RAW_DESCENT 200
NORM_SPACE 11
RELATIVE_WEIGHT 40
RELATIVE_SETWIDTH 50
SUPERSCRIPT_X 0
SUPERSCRIPT_Y 13
SUPERSCRIPT_SIZE 18
SUBSCRIPT_X 0
SUBSCRIPT_Y 3
SUBSCRIPT_SIZE 18
AVG_LOWERCASE_WIDTH 126
AVG_UPPERCASE_WIDTH 151
ENDPROPERTIES
CHARS 356
STARTCHAR space
ENCODING 32
SWIDTH 375 0
DWIDTH 11 0
BBX 1 1 0 0
BITMAP
00
ENDCHAR
STARTCHAR exclam
ENCODING 33
SWIDTH 149 0
DWIDTH 4 0
BBX 4 23 0 0
BITMAP
0D60
0E60
0E70
0E70
0E70
0E70
0E70
0E80
0E80
0E80
0E80
0E90
0D90
0DA0
0CA0
0860
0000
0000
0000
0000
2AD4
8FF9
5FD3
ENDCHAR
STARTCHAR quotedbl
ENCODING 34
SWIDTH 234 0
DWIDTH 7 0
BBX 6 10 0 13
BITMAP
000030
5200F1
A800F5
9D00F8
7F20FA
4F50EB
1F90DB
0BD0CC
03B19C
000012
ENDCHAR
STARTCHAR numbersign
ENCODING 35
SWIDTH 768 0
DWIDTH 22 0
BBX 21 14 0 0
BITMAP
0000000045006200000000
000000009800D600000000
000000009A009A00000000
000000009D007E44443000
00000002BFCBFFFFFFF600
00269CEFFFEDDF94226400
3CFFFB869F502F70000000
ADA510005F504FCACDDC50
000000139FEFFFFFECDEB0
0037ADFFFFE96FC2000000
006CA7531DC00EB0000000
000000000BC00CC0000000
0000000005500AE0000000
0000000000000770000000
ENDCHAR
STARTCHAR dollar
ENCODING 36
SWIDTH 581 0
DWIDTH 16 0
BBX 16 26 0 0
BITMAP
0000000037000000
00000000AA095000
00000000E70E5000
00000000F70E5000
00000003FECF5000
000001AFFFFFC300
00002DEFF33FC400
0000BE17F13F0000
0000BC06E04C0000
00004E59E05A0000
000005FFE0890000
0000004FF3E80000
0000000DFDFD2000
0000000EC7FFD200
0000000E99E2AD20
0000000F5BA00BC0
0000001F2E7003F7
6910003E1F5000DB
8FC1006B3F4000CB
07FC10A95F4000EA
003CD9FA7F4004F6
00006EFFEF401DD1
000002EFFF98DE30
000000DDCFFE9200
000000DB8F100000
000000656C000000
ENDCHAR
STARTCHAR percent
ENCODING 37
SWIDTH 636 0
DWIDTH 18 0
BBX 18 17 0 0
BITMAP
00000000000002C000
0003200000001D6000
03EFFA100000BB0000
1ED68EC00007D10000
8F2005F4004E200000
BD0000F501D5000000
9E1008F10A90000000
1EB7CF605E10000000
029DC401E700045100
0000000AE101BFFD20
0000005F700AE54EA0
000001DE104F4009F1
000008F700AB0008F1
00001ED000E6000DC0
00008F5000F401AF30
0000DB0000BEDFF600
0000D2000018BA3000
ENDCHAR
STARTCHAR ampersand
ENCODING 38
SWIDTH 457 0
DWIDTH 13 0
BBX 13 21 0 -1
BITMAP
00002610000000
0000AFC0000000
0000CFF4000000
0000DFF5000000
0000EFF5000000
0000FFF3000000
0000FFD0000000
0000FF70000000
0001FD10255600
0005F8009FFF30
000BFA00AE3100
004FCE10BA0000
00CB0D72F60000
05F305FEF20000
0CB000DFB00000
4F6000BF700000
8F1005FED00000
AD004E80C70000
8F89FB001D3000
0AFE9100026000
00100000000000
ENDCHAR
STARTCHAR quotesingle
ENCODING 39
SWIDTH 102 0
DWIDTH 3 0
BBX 3 8 0 13
BITMAP
1200
7B00
7F10
6F30
5F50
3F60
0D60
0310
ENDCHAR
STARTCHAR parenleft
ENCODING 40
SWIDTH 421 0
DWIDTH 12 0
BBX 12 19 0 -2
BITMAP
000000001410
00000019FFE2
000002DE75A3
00003EA10000
0002DA000000
000BC0000000
007F20000000
02E800000000
09F100000000
1EA000000000
4F5000000000
6F2000000000
6F2000000000
3F4000000000
0EA000000000
07F910000000
00BFFA740000
0008EFFB0000
000001100000
ENDCHAR
STARTCHAR parenright
ENCODING 41
SWIDTH 290 0
DWIDTH 8 0
BBX 8 19 0 -2
BITMAP
05830000
06EF9000
001DF700
0001EF30
00004FA0
00000BF1
000004F5
000001F8
000000E9
000000F7
000005F2
00000CC0
00006F50
0003EC00
002DF400
01DF9000
1DFD1000
AFD20000
47100000
ENDCHAR
STARTCHAR asterisk
ENCODING 42
SWIDTH 412 0
DWIDTH 12 0
BBX 11 11 0 6
BITMAP
000000002BA0
08C32906FE30
02DFCFBFA100
002DFFFEA700
0587FFFFE700
5EEFFFFF7000
00AF75FFB000
00EB00EFF500
02E200BEEC00
0010008B2300
000000330000
ENDCHAR
STARTCHAR plus
ENCODING 43
SWIDTH 459 0
DWIDTH 13 0
BBX 13 12 0 0
BITMAP
00004800000000
00007F10000000
00004F50000000
00001F90000000
00000FE4200000
0369CFFFFFDC30
BFFECEFDBBBA10
341009F5000000
000006F5000000
000004F5000000
000003F5000000
000001E3000000
ENDCHAR
STARTCHAR comma
ENCODING 44
SWIDTH 130 0
DWIDTH 4 0
BBX 3 10 0 -6
BITMAP
4E40
6F90
0EA0
0FA0
1F80
4F60
8F30
AE00
B800
2100
ENDCHAR
STARTCHAR hyphen
ENCODING 45
SWIDTH 375 0
DWIDTH 11 0
BBX 10 3 0 6
BITMAP
05ACCDEEB2
6FFECBABD5
2310000000
ENDCHAR
STARTCHAR period
ENCODING 46
SWIDTH 204 0
DWIDTH 6 0
BBX 4 6 1 0
BITMAP
0220
1EE3
7FFB
BFFE
8FFA
1DB1
ENDCHAR
STARTCHAR slash
ENCODING 47
SWIDTH 309 0
DWIDTH 9 0
BBX 9 21 0 0
BITMAP
0000000C10
0000004F20
0000007E00
000000AB00
000001E700
000005F300
00000BD000
00001F8000
00007F4000
0000CD0000
0002F90000
0008F40000
000DD00000
004F800000
009F300000
00EC000000
06F6000000
0DE1000000
5F80000000
9F20000000
8800000000
ENDCHAR
STARTCHAR zero
ENCODING 48
SWIDTH 430 0
DWIDTH 12 0
BBX 12 12 0 0
BITMAP
00018DEA1000
003DFDEFE200
02EB1006ED10
0BC000004F80
3F4000000AE1
6E00000006F4
7D00000004F4
4F10000007F2
0D8000001ED0
05F700009F60
007FDA9DFA00
0003ADFD7000
ENDCHAR
STARTCHAR one
ENCODING 49
SWIDTH 318 0
DWIDTH 9 0
BBX 9 17 0 0
BITMAP
0000000520
0000002F40
0000005F30
0000009F20
000001EF00
00001CFD00
0001BFFC00
000BFFFA00
00AF59F800
0AF709F600
7F800AF400
35000BF100
00000DE000
00000EC000
00000F9000
00000F6000
00000D2000
ENDCHAR
STARTCHAR two
ENCODING 50
SWIDTH 497 0
DWIDTH 14 0
BBX 14 16 0 0
BITMAP
00000000210000
0000005EFE5000
000001EA2BF200
000003F202F800
0000019000BD00
00000000008F10
00000000007F20
00000000009F10
0000000000CE00
0000000001FA00
0000000007F400
022000001E9000
8FFE9301BC0000
9FFFFFFFF90000
2CFFFFFFFFEC80
0047654347BEE1
ENDCHAR
STARTCHAR three
ENCODING 51
SWIDTH 430 0
DWIDTH 12 0
BBX 12 15 0 0
BITMAP
04ABBBB80000
0EEB99BFB000
06400002E400
00000001E600
0000005DD200
0036AEFB1000
01EFFFF40000
00159DFFA100
00000039FC10
000000004E90
2910000008F2
5FB1000005F4
06FC300008F3
004DFC99CFB0
00017CEFD700
ENDCHAR
STARTCHAR four
ENCODING 52
SWIDTH 412 0
DWIDTH 12 0
BBX 11 17 0 0
BITMAP
01C500000000
06F500000000
0BE100000000
1FA000000000
4F4000000270
6F00000008F0
7D0000001ED0
6E0000008FA0
4F300004FF70
0EB0005EFF50
09FB8BFFFF40
01CFFFE66F40
000686104F60
000000003F80
000000003FA0
000000002FB0
000000000E70
ENDCHAR
STARTCHAR five
ENCODING 53
SWIDTH 571 0
DWIDTH 16 0
BBX 16 19 0 0
BITMAP
0000001466666400
000006FFFFFFFFD1
000007F832233560
000007E100000000
00001E8000000000
00008F1000000000
0001ED0000000000
0008FFEA61000000
00049CEFFE600000
000000015BFA0000
00000000004E9000
000000000006F200
000000000000F700
260000000000D900
7A0000000001FA00
6B0000000007F700
2EB62000039FD100
04EFFEDDEFFC2000
0016ADEFEC600000
ENDCHAR
STARTCHAR six
ENCODING 54
SWIDTH 440 0
DWIDTH 12 0
BBX 12 17 0 0
BITMAP
000000049B91
000002BFEDF7
00003EE70063
0002EC200000
001DC1000000
008E20000000
03F600000000
09F257762000
1EFFFEDEF900
4FE72001AF90
6F3000000BF3
7D00000002F7
6F20000001F8
2F90000006F6
0CF810017FE1
03EFFDDFFD30
002AEFDB7100
ENDCHAR
STARTCHAR seven
ENCODING 55
SWIDTH 412 0
DWIDTH 12 0
BBX 11 15 0 0
BITMAP
2EDCBAAA4000
069999AF6000
0000002F6000
0000002F5000
0000002F4000
0000004F3000
0001119F4100
00BFFFFFFFB0
004678FD6BE0
000001FA0000
000003F60000
000005F30000
000009F00000
00000DC00000
00000C700000
ENDCHAR
STARTCHAR eight
ENCODING 56
SWIDTH 375 0
DWIDTH 11 0
BBX 10 16 0 0
BITMAP
003CFD8100
04EEBCFB00
2EC200AF20
7F2000AE00
7E1003F500
1DC22D9000
02CFEE1000
001EFD0000
009E6DB100
05F600AC10
0BE0000BC0
0CD00002E6
08F20000AA
01EC1000A9
003ED659F5
00018DFD70
ENDCHAR
STARTCHAR nine
ENCODING 57
SWIDTH 300 0
DWIDTH 8 0
BBX 9 17 0 0
BITMAP
018DFB3000
0BE75AF400
4F4000BD00
9E0000DF20
BD0002FF10
AF2006FD00
5FB10AFB00
09FFEFF900
0027BEF800
000004F700
000002F600
000002F500
000003F400
000003F400
000003F400
000002F500
000001E500
ENDCHAR
STARTCHAR colon
ENCODING 58
SWIDTH 84 0
DWIDTH 2 0
BBX 3 8 0 2
BITMAP
2300
6E10
1800
0000
0000
0000
1400
5A00
ENDCHAR
STARTCHAR semicolon
ENCODING 59
SWIDTH 128 0
DWIDTH 4 0
BBX 4 17 -1 -6
BITMAP
06C1
06F4
0171
0000
0000
0000
0000
0037
008D
009D
00BC
01F9
08F5
1EF1
5FA0
6E20
0100
ENDCHAR
STARTCHAR less
ENCODING 60
SWIDTH 487 0
DWIDTH 14 0
BBX 13 12 0 0
BITMAP
00000000000430
0000000003BF70
000000007FD400
0000002CF91000
000006ED400000
0001AF81000000
004ED300000000
06FB1000000000
6FF62000000000
AFFFFEC9741000
0158ACEFFFE600
0000000126CB00
ENDCHAR
STARTCHAR equal
ENCODING 61
SWIDTH 524 0
DWIDTH 15 0
BBX 14 8 0 3
BITMAP
16ABCCCCCCCCA3
4DDEEEDDBA9AFD
00000000000023
00000000000000
00000000000000
01233444455300
6FFFFFFFFFFFD0
04555555555520
ENDCHAR
STARTCHAR greater
ENCODING 62
SWIDTH 403 0
DWIDTH 11 0
BBX 12 13 0 0
BITMAP
2D8000000000
0BFB30000000
007EFD720000
00017DFFDA60
00000037AFF1
000000005FE0
00000003EE40
0000006EE300
00001AFB1000
0004DF700000
008FD4000000
0BFA10000000
2E5000000000
ENDCHAR
STARTCHAR question
ENCODING 63
SWIDTH 272 0
DWIDTH 8 0
BBX 8 25 0 0
BITMAP
00220000
3DFFC300
BA78EE20
30001EA0
000009E0
000008F1
00000AF1
00001ED0
00006F80
0001DF20
0007FA00
001EF200
007F8000
00BE1000
00DE7410
006FFFC0
00014530
00000000
00000000
00000000
00000000
00000000
00000000
00000DA0
00000CA0
ENDCHAR
STARTCHAR at
ENCODING 64
SWIDTH 815 0
DWIDTH 23 0
BBX 23 26 0 -1
BITMAP
00000005ADFEB61000000000
000004DFC869DFE810000000
00007FC30000039EE5000000
0007F700000000029FA00000
004F50000000000004EB1000
01D7000000000000003EB000
07C00000000000000006F700
0D500000003798300000DC00
2E0000001AFCBDFC40008E00
5B000002DB20003DF4005F10
7900000BB0000001D8004F10
6900004F200000A931005F00
5B0000AA000001FF00008D00
3E0000D7000002FF2000DA00
0E4000E5000002FF1005F500
0BA000D7000006FF702DD100
05F2009C00006FCCFCEF4000
00DA001EC76BFB119DB40000
005F5003CFFE700000000000
000AE3000220000000000000
0001CE300000000000000000
00002CE50000000000000000
000001BFA200000001579000
00000006EFB75569CFFF7000
0000000018EFFFFEC9610000
000000000000110000000000
ENDCHAR
STARTCHAR A
ENCODING 65
SWIDTH 562 0
DWIDTH 16 0
BBX 15 22 0 0
BITMAP
0000003420000000
00006EFFFC200000
0008E6116DE30000
003F400001DD1000
009A0000003F7000
00D500000009D000
02F100000003F400
04D000000000C900
06B0000000008D00
07A0000000005F10
0890000000003F50
0990000000002F70
0AC6554321004F90
5FFFDDDEFFFEEFB0
0BE1000002454DC0
07D0000000000BD0
07E0000000000AE0
07F10000000009F0
05F4000000000BF0
03F7000000000DE0
01F9000000001FC0
0089000000001F60
ENDCHAR
STARTCHAR B
ENCODING 66
SWIDTH 741 0
DWIDTH 21 0
BBX 21 20 0 0
BITMAP
0000013664100000000000
016ADFFFFFFA3000000000
4FD8BFFC867CF800000000
33000DE000007F60000000
000007F200000DA0000000
000002F600000D80000000
000000D900009E10000000
000000AD049EF500000000
0000007F1EFFE200000000
0000005F53BFFF91000000
0000002F80027DFE500000
0000000FA000004BF80000
0000000DD00000005F9000
0000000BF000000005F600
00000008F200000000DD00
00000006F300000000AF20
0000001AF100000000BF30
0000009FF810000005FD00
0000001AFFEB9899DFE400
0000000037ACEFFED82000
ENDCHAR
STARTCHAR C
ENCODING 67
SWIDTH 515 0
DWIDTH 14 0
BBX 14 19 0 0
BITMAP
00000000010000
0000003AEFB000
000008FFBDF000
00009FA205C000
0009E5000A4000
004E4000020000
01D50000000000
07B00000000000
0D400000000000
3E000000000000
6D000000000000
7D000000000000
6E000000000000
4F200000000000
1F600000000000
0AD00000000000
03FB1000369BD7
008FFDDFFFFD81
0005DFEA741000
ENDCHAR
STARTCHAR D
ENCODING 68
SWIDTH 741 0
DWIDTH 21 0
BBX 20 19 0 -1
BITMAP
00257898630000000000
2CFFFFFFFFE930000000
6C631002FEAEFC400000
00000000BE006DF91000
000000008F00019FC100
000000005F200006FC10
000000003F4000006F90
000000000F6000000AF3
000000000E90000002F9
000000000DB0000000CC
000000000CD00000009E
000000000BF0000000BE
000000000AF2000001EC
0000000009F1000009F7
0000000007F100007FE1
000000041150002AFF40
0000001FFC857AFFE400
00000005CFFFFFD71000
00000000024441000000
ENDCHAR
STARTCHAR E
ENCODING 69
SWIDTH 524 0
DWIDTH 15 0
BBX 14 18 0 0
BITMAP
03543322222100
0FFFFFFFFFFF70
1FA66554443480
1F800000000000
1F800000000000
1F800000000000
1F800000001110
1F912368BDFE20
6FFFFFFDB96100
4F942100000000
3F300000000000
4F100000000000
6F100000000000
7F100000000000
7F100000000000
5F200000134540
1DECCDEFFFFFF4
02ADFFFFECA820
ENDCHAR
STARTCHAR F
ENCODING 70
SWIDTH 514 0
DWIDTH 14 0
BBX 19 17 -1 0
BITMAP
002579ABBCBA96300000
6DFFFFFFFFFFFFFE8100
64439FB3000125AEFC00
00003F60000000003510
00002F50000000000000
00002F50000000000000
00001F60000000000000
00000FA0000000000000
0024AFFEEFFFD6000000
00ADDFFFFFEC82000000
000007F5100000000000
000004F5000000000000
000002F6000000000000
000002F9000000000000
000001FC000000000000
000000DE000000000000
00000069000000000000
ENDCHAR
STARTCHAR G
ENCODING 71
SWIDTH 571 0
DWIDTH 16 0
BBX 16 17 0 -2
BITMAP
0000000002699500
00000005BFFEFF50
000003BE94101540
00007FA100000000
0009F60000000000
008F500000000000
03F7000410000100
0AD0000FFCDEFF50
0E80000488888EB0
1F50000000000BB0
0F50000000000CB0
0CB0000000004FB0
05FA20000027FFB0
008FFDBCCEFDBFB0
00049CCA73000EB0
0000000000000CE4
00000000000004D5
ENDCHAR
STARTCHAR H
ENCODING 72
SWIDTH 524 0
DWIDTH 15 0
BBX 14 19 0 0
BITMAP
010000000002D1
0E2000000007D0
0E4000000007D0
0E5000000007D0
0D7000000008D0
0C9000000008D0
0BB000000008D0
09D00000003CE0
08E000003AFFE0
07F1004BFE8AF0
07F56CFE7107F0
09FFFD600006F1
7FFD50000005F2
03FA00000004F3
00EA00000003F5
00CA00000003F7
00AB00000001F8
009B00000000EB
0046000000008B
ENDCHAR
STARTCHAR I
ENCODING 73
SWIDTH 167 0
DWIDTH 5 0
BBX 5 16 0 0
BITMAP
420000
8A0000
5F1000
2F5000
0D9000
09D000
06F100
04F300
01F600
00F800
00DB00
00CD00
00AF00
008F20
006F30
002D20
ENDCHAR
STARTCHAR J
ENCODING 74
SWIDTH 439 0
DWIDTH 12 0
BBX 12 20 0 0
BITMAP
000000000700
000000002F20
000000000F60
000000000DA0
000000000BD0
0000000009F0
0000000007F2
0000000005F5
0000000003F7
0000000000F8
1C10000000DA
5F00000000CB
3F40000000BC
0BC0000000BC
01D7000000CC
002E500000CA
0004E60000E8
00004F9103F5
000003DEACD0
00000018ED30
ENDCHAR
STARTCHAR K
ENCODING 75
SWIDTH 468 0
DWIDTH 13 0
BBX 13 17 0 0
BITMAP
12000000330000
7B000009F40000
6E0000BF600000
5F100AF7000000
3F207F90000000
1F44FA00000000
0E7EB000000000
0CFD1000000000
0AF50000000000
0AFD1000000000
0AEFC100000000
0AC7FD20000000
0AC05EE5000000
09E002CF910000
08F10007FD4000
05F300003CFA10
01E20000008E50
ENDCHAR
STARTCHAR L
ENCODING 76
SWIDTH 346 0
DWIDTH 10 0
BBX 10 16 0 -1
BITMAP
04B0000000
09E0000000
0CD0000000
0EB0000000
0FA0000000
2F80000000
3F60000000
4F40000000
5F30000000
6F20000000
7F10000000
6F30000000
2FA1000000
09FFFDCB91
006CEFFFD2
0000001000
ENDCHAR
STARTCHAR M
ENCODING 77
SWIDTH 534 0
DWIDTH 15 0
BBX 15 19 0 -1
BITMAP
0100000000001000
6F6000000006E100
3FF20000000DF200
0AFA0000004FF100
04FF400000CFF000
02FFE40019FFE000
03F8EFDCEFFFD000
04F42BFFD82CE000
04F400000008F000
05F400000007F100
06F400000006F400
06F400000004F600
07F400000003F900
07F400000001FB00
07F400000000EE00
07F400000000DF00
05F300000000BF10
0030000000009F20
0000000000000100
ENDCHAR
STARTCHAR N
ENCODING 78
SWIDTH 609 0
DWIDTH 17 0
BBX 17 15 0 0
BITMAP
0C7000000000000000
0CB000000000C60000
0BF100000000DF3000
0AF5000000009FA000
0AFA000000002FF200
0BFE1000000008F700
0CFF7000000001EC00
0DFFD0000000009F10
0E84F6000000005F30
0F50AE100000005F50
2F601EB00000007F30
2F8005FA100000DE00
3F90007FD6324CF600
3FA00007FFFFFF8000
0D50000027AA830000
ENDCHAR
STARTCHAR O
ENCODING 79
SWIDTH 609 0
DWIDTH 17 0
BBX 17 14 0 0
BITMAP
000158630000000000
004EFFFFD820000000
04FB3137BFF9100000
0DB0000003AFD30000
4F2000000005EE3000
7D00000000003ED100
7D000000000005F700
6E000000000000CD00
3F5000000000007F20
0DD100000000005F30
05FC1000000001CE00
009FD50000006DF500
0008FFD878BEFC4000
000028CEFDB7300000
ENDCHAR
STARTCHAR P
ENCODING 80
SWIDTH 627 0
DWIDTH 18 0
BBX 18 17 0 0
BITMAP
0048BCBA7510000000
3DFCBBCEFFFC710000
7F400000148DFF8000
6900000400004CFB00
1000002E0000007F80
0000002F1000000BE0
0000002F20000008F1
0000002F3000000BF1
0000002F6000009F90
0000001FB3237DFA00
0000000FFFFFFC4000
0000000DFCB8300000
0000000BE000000000
00000008F100000000
00000005F200000000
00000002F300000000
00000000B200000000
ENDCHAR
STARTCHAR Q
ENCODING 81
SWIDTH 642 0
DWIDTH 18 0
BBX 19 19 0 -4
BITMAP
00006CFFC60000000000
001BFBABEFD400000000
00BD200009FF70000000
06F3000001FDFA000000
0CA0000000F46FA00000
2F60000003D006F80000
4F5000000000008F4000
4F4000000000000DC000
2F50000033000006F200
0E8000006E200002F400
08E200001EC00005F100
01EC200006F9006F9000
004FE71003FFBDFB1000
0003DFFDDEFFFF900000
000006ADEECACF700000
00000000000006E60000
000000000000005FC400
0000000000000004EF20
00000000000000001100
ENDCHAR
STARTCHAR R
ENCODING 82
SWIDTH 579 0
DWIDTH 16 0
BBX 17 20 -1 -2
BITMAP
000146776520000000
03CFFFFFFFFE810000
1ED63222347CFE4000
3F20000000005EE200
08004400000003E800
00009B00000001EA00
00009C0000005DF700
00008F10369EFF9000
00006FEFFFFD820000
00004FFC9520000000
00002FF30000000000
00000EFD1000000000
00000CADC100000000
000008B2DB10000000
000005E02DC1000000
000001F202CD300000
000000C5001BF80000
0000006300008FD400
00000000000004CF50
000000000000000200
ENDCHAR
STARTCHAR S
ENCODING 83
SWIDTH 627 0
DWIDTH 18 0
BBX 17 18 0 -1
BITMAP
00000159BCA8400000
00005EEA878DFD3000
0001F81000006EE100
0004F0000000015100
0003F4000000000000
0000BE300000000000
00001CF81000000000
0000006EE810000000
000000018EF9200000
00000000029FF81000
070000000002AFD300
4F200000000004DE20
4F6000000000002FA0
0CD100000000000FC0
01CD50000000004F90
0008EEA876567AFD10
000005ADFFFFFC7100
000000001332100000
ENDCHAR
STARTCHAR T
ENCODING 84
SWIDTH 581 0
DWIDTH 16 0
BBX 19 18 0 0
BITMAP
56655544321000000000
8CEFFFFFFFFFECB85100
00024578AFA78BDFFF60
000000004F2000025740
000000003F3000000000
000000002F4000000000
000000001F5000000000
000000000F7000000000
000000000E9000000000
000000000DB000000000
000000000BD000000000
0000000009F000000000
0000000008F300000000
0000000006F500000000
0000000004F800000000
0000000002FC00000000
0000000000EF50000000
00000000006F80000000
ENDCHAR
STARTCHAR U
ENCODING 85
SWIDTH 571 0
DWIDTH 16 0
BBX 16 16 0 0
BITMAP
0020000000000000
07F3000000057000
0E8000000009D000
2F200000000BF100
3F100000000AF200
3F1000000008F300
3F2000000005F400
1F4000000002F600
0E6000000000DA00
0C9000000000AE00
08D000000000CF50
03F500000005FFB0
00CD1000004EFFF1
005FC2003AFA3AF6
0009FFDEFE5002E8
00007DFD71000011
ENDCHAR
STARTCHAR V
ENCODING 86
SWIDTH 421 0
DWIDTH 12 0
BBX 12 15 0 0
BITMAP
350000000060
6F50000005F1
2FD0000009F1
0BF500000DF0
05FB00001FD0
00EF20004FA0
008F90007F70
001FF100AF30
0009F700DE00
0002FE01FB00
0000AF64F600
00003FC8F100
00000BFFA000
000003FF2000
000000A70000
ENDCHAR
STARTCHAR W
ENCODING 87
SWIDTH 703 0
DWIDTH 20 0
BBX 20 14 0 0
BITMAP
48000000000000025000
9B00000000000007F300
BC00000000000005FA00
BE00000000000001FF10
AF00000000000000AF50
9F100000900000004FA0
8F300001F50000000DD0
6F500001F800000009F1
3F700002FD00000007F2
0EB00007FF60000007F1
09E1003FFEE100001DC0
03FA26EE43ED3003CF40
008FFFD2003DFDDFF600
0006B9100001AEEA3000
ENDCHAR
STARTCHAR X
ENCODING 88
SWIDTH 534 0
DWIDTH 15 0
BBX 15 17 0 -2
BITMAP
0063000000000000
008D000000005A70
002F8000000AFA10
0008F20001BE5000
0000DA001CD20000
00003F64DC100000
00000BFFB1000000
000009FD10000000
00005FFE10000000
0003EB8FA0000000
001DD109F6000000
009F3000BE300000
03F800001ED10000
0CD0000003E90000
3F600000004E2000
6D00000000000000
3400000000000000
ENDCHAR
STARTCHAR Y
ENCODING 89
SWIDTH 403 0
DWIDTH 11 0
BBX 11 19 0 -1
BITMAP
790000000000
6E10000007B0
3F9000000BB0
0BF500001E90
02EE40006F50
002DF700DF10
0002BFDBFB00
000006DFF500
0000001EE000
0000002F8000
0000007F3000
000000BC0000
000000F80000
000003F50000
000005F10000
000007F00000
000007F00000
000007F10000
000001500000
ENDCHAR
STARTCHAR Z
ENCODING 90
SWIDTH 571 0
DWIDTH 16 0
BBX 16 18 0 0
BITMAP
0025543000000000
2BFFFFFEA2000000
7E931027DE300000
000000001CC00000
0000000004F20000
0000000002F30000
0000000004F20000
0000000009D00000
000000038FE75300
00049CFFFFFFFF40
000DCBAEFE635100
0000000BE2000000
0000003F40000000
000001DA00000000
00000AF200000000
00003F9000158BD6
00003FD9ADFFFFC4
00000AFFFECA5100
ENDCHAR
STARTCHAR bracketleft
ENCODING 91
SWIDTH 477 0
DWIDTH 13 0
BBX 16 23 0 -3
BITMAP
00000000268A8000
000015AEFFC95000
005AFFE951000000
3EFE830000000000
6F80000000000000
2F90000000000000
0CD0000000000000
08F3000000000000
04F8000000000000
00FA000000000000
00BC000000000000
008E000000000000
005F100000000000
003F300000000000
000F500000000000
000D700000000000
000A900000000000
0008A00000000000
0007D00000000000
0007F00000000000
0006F9789ABBCB90
0005FFFEDCCCCCC2
0001830000000000
ENDCHAR
STARTCHAR backslash
ENCODING 92
SWIDTH 430 0
DWIDTH 12 0
BBX 12 16 0 0
BITMAP
100000000000
A80000000000
4F7000000000
0AF600000000
01DF40000000
003FE3000000
0006FD200000
0000AFC00000
00001CFA0000
000002EF7000
0000005FF300
00000008FD10
00000000BF90
000000001DF3
0000000007F8
0000000003E4
ENDCHAR
STARTCHAR bracketright
ENCODING 93
SWIDTH 430 0
DWIDTH 12 0
BBX 12 27 0 -3
BITMAP
033200000000
8FFFFDA82000
0269BEFFF300
00000026FC00
00000000BF20
000000006F50
000000002F80
000000000E90
000000000C90
0000000009A0
0000000008B0
0000000007C0
0000000006D0
0000000005D0
0000000004E0
0000000004F0
0000000004F1
0000000003F2
0000000003F2
0000000003F3
0000000003F4
0000000004F5
0000000004F6
0000000004F7
0167777779F8
02FFFFFFFFF8
008999999992
ENDCHAR
STARTCHAR asciicircum
ENCODING 94
SWIDTH 375 0
DWIDTH 11 0
BBX 8 7 1 14
BITMAP
00026000
0007F700
000DFF40
009FDFE2
0AF81BFB
7F8001BE
02000003
ENDCHAR
STARTCHAR underscore
ENCODING 95
SWIDTH 656 0
DWIDTH 18 0
BBX 18 3 0 0
BITMAP
2DCB96543321111110
027ADFFFFFFFFFFFF8
00000135689ACDDEFB
ENDCHAR
STARTCHAR grave
ENCODING 96
SWIDTH 172 0
DWIDTH 5 0
BBX 5 4 0 12
BITMAP
360000
2ED200
04ED20
002B30
ENDCHAR
STARTCHAR a
ENCODING 97
SWIDTH 505 0
DWIDTH 14 0
BBX 14 14 0 0
BITMAP
00005DD9200000
0000ECBFF60000
00002002BF6000
000000000BF300
0000000002FB00
0002799741CF30
01AFFFDDFEEFA0
0BFA400029FFE0
4F600000006FF2
7E0000000008F4
5F2000000000D4
0DE72000024662
02CFFEDEFFFFC3
00059CEFEB7200
ENDCHAR
STARTCHAR b
ENCODING 98
SWIDTH 497 0
DWIDTH 14 0
BBX 14 18 0 0
BITMAP
4A000000000000
AF000000000000
9F200000000000
6F300000000000
4F500000000000
2F700000000000
0E900000000000
0CB00000000000
09E35652000000
06FFFFFFD81000
05FE4237CFE500
04F8000003CF60
03F60000001DE1
01F600000004F5
00DC00000004F5
008FB200003DF3
001DFFB99CFF80
00018DFFEDA400
ENDCHAR
STARTCHAR c
ENCODING 99
SWIDTH 449 0
DWIDTH 13 0
BBX 12 12 0 0
BITMAP
00029DFD8100
005FC758FB00
04F800005E00
0DC000000900
4F5000000100
6F2000000000
7F2000000000
5F4000000000
1FB000000000
08FB30000000
00AFFDA98897
00049DEFFEB4
ENDCHAR
STARTCHAR d
ENCODING 100
SWIDTH 524 0
DWIDTH 15 0
BBX 14 20 0 0
BITMAP
000000000A5000
000000000CE200
0000000009F800
0000000004FE00
0000000000EF30
0000000000AF60
00000000007FA0
0019EEB6003FC0
00CFFFFFD42FE0
08FE6227EFAFF1
0EF400001AFFF2
3FC00000009FF4
6F600000004FF5
7F400000006FF6
6F50000000CFF7
3F90000008FFF9
0DD000007FD9FA
07F9003BFE20EC
00CFEEFFB1007C
001AEEA4000000
ENDCHAR
STARTCHAR e
ENCODING 101
SWIDTH 515 0
DWIDTH 14 0
BBX 14 15 0 0
BITMAP
00001575100000
0007FFDFD20000
00AF7103EC0000
06F500006F2000
0DA000002F4000
3F4000006F2000
6F200019FA0000
7F4758EFA10000
6F5EFDA3000000
4F500000000000
0EA00000000000
06F50000000000
00AFA400000000
0008FFFDBBDED3
000028CEFDA610
ENDCHAR
STARTCHAR f
ENCODING 102
SWIDTH 376 0
DWIDTH 11 0
BBX 14 20 -1 0
BITMAP
00000028A94000
000004EFEEFA10
00001ED4007FC1
00008E100007F7
0000D600000045
0001F200000000
0004F000000000
0005F100000000
0006F300000000
0006F500000000
0005F800000000
08CEFFFECB7000
2DA7DFCCDD7000
00006F80000000
00000EC0000000
000007F6000000
000001EE100000
0000007FA00000
0000001EF40000
00000004E60000
ENDCHAR
STARTCHAR g
ENCODING 103
SWIDTH 366 0
DWIDTH 10 0
BBX 15 26 -4 -14
BITMAP
0000000015720000
00000005EFFE2000
0000006F922DA000
000003F80007F100
00000BD00005F500
00002F600005F800
00006F200005FA00
00007F200008FB00
00005F70002EFC00
00000CF968EFFD00
000002CFFFB9FE00
000000046301FF00
000000000000CF00
000000000000AF00
0000000000008F10
0000000000007F10
0000000000005F20
0000000000005F30
5900000000005F30
AB00000000007F20
8E10000000009F00
2EC300000000DB00
04EFA4000005F700
002BFFD9525EE100
00004AFFFFFF7000
000000158A940000
ENDCHAR
STARTCHAR h
ENCODING 104
SWIDTH 427 0
DWIDTH 12 0
BBX 12 20 -1 0
BITMAP
280000000000
4F2000000000
1F8000000000
0DC000000000
09F200000000
05F500000000
03F700000000
00F927A83000
00DEFFFFF600
00BFE857DF30
009E10001CB0
008E000004F2
006F000000E6
005F200000CA
004F400000BC
003F600000CE
002F800000CE
001F900000DD
000FA00000EB
000B700000D6
ENDCHAR
STARTCHAR i
ENCODING 105
SWIDTH 174 0
DWIDTH 5 0
BBX 5 17 0 0
BITMAP
780000
7E2000
000000
000000
014000
04F100
04F100
04F200
04F400
03F700
02FA00
01FC00
00FF00
00DF30
00AF40
007F50
002E20
ENDCHAR
STARTCHAR j
ENCODING 106
SWIDTH 200 0
DWIDTH 6 0
BBX 11 30 -4 -13
BITMAP
000004000000
00002F700000
000008700000
000000000000
000000000000
000000000000
000000B60000
000000AC0000
0000009F2000
0000007F6000
0000004F9000
0000002FC000
0000000EF000
0000000BF300
00000008F600
00000005F800
00000002FA00
00000000FC00
00000000DE00
00000000BF00
1C1000008F20
0F7000007F30
0CE100005F30
07F700004F30
01EE10004F30
006FA0004F30
0009FA107F10
00009FEBFE00
000006EFF800
000000167100
ENDCHAR
STARTCHAR k
ENCODING 107
SWIDTH 403 0
DWIDTH 11 0
BBX 12 18 0 0
BITMAP
100000000000
D00000000000
D50000000000
B90000000000
9D0000000000
6F1000058000
3F40006F8000
1F7002F80000
0DA00C800000
0BD2AA000000
09FFD1000000
07FF40000000
06FE00000000
06FF40000000
06FFE6000000
06F9AFD83000
08F105DFFFD1
07D00017BB80
ENDCHAR
STARTCHAR l
ENCODING 108
SWIDTH 120 0
DWIDTH 3 0
BBX 3 17 0 -1
BITMAP
2D10
3F50
3F60
3F70
4F70
4F80
4F80
4F90
4F90
4F90
4F90
3F90
3F90
1F80
0F70
0E40
0100
ENDCHAR
STARTCHAR m
ENCODING 109
SWIDTH 750 0
DWIDTH 21 0
BBX 21 12 0 0
BITMAP
00000000000006BC810000
2A2CFFC60002CFFFFD1000
3FEFC9BF904EF8206FA000
3FF90007F9FE400009F300
2FE10000CFF5000001F900
1FA000006FD0000000BD00
0F9000001FC00000008F20
0EA000000BF10000006F30
0EB0000007F60000006F30
0ED0000002F80000008F20
0BD0000000320000009E00
0250000000000000009900
ENDCHAR
STARTCHAR n
ENCODING 110
SWIDTH 459 0
DWIDTH 13 0
BBX 13 12 0 0
BITMAP
00004BEE800000
284BFCACFB0000
3FFD40009F7000
3FF300000CE100
3FC0000005F600
2FA0000000EC00
0FB0000000BF00
0EE00000008F30
0BF20000006F50
07F50000005F50
02F80000006F30
00690000006D00
ENDCHAR
STARTCHAR o
ENCODING 111
SWIDTH 487 0
DWIDTH 14 0
BBX 13 12 0 0
BITMAP
00005ADFE91000
002CFDABFFD100
02EC40002BFB00
0CC10000009F40
3F300000000D90
6E000000000BC0
7E000000000DC0
5F200000005FA0
1FA0000003EF40
09F900006FFA00
00AFEA9DFF9000
0005BEFDA40000
ENDCHAR
STARTCHAR p
ENCODING 112
SWIDTH 520 0
DWIDTH 15 0
BBX 14 20 0 -10
BITMAP
000037ABA83000
003CFFFDEFFA10
03EFA410029FC1
0DF400000006F8
3FE000000000CD
6FF0000000009F
7FF1A6000003ED
6FF2CFD867BFF7
3FF42AEFFFFD70
1FF60002332000
0DF90000000000
09FB0000000000
06FD0000000000
03FF1000000000
00EF3000000000
00AF6000000000
006F8000000000
001FB000000000
000AD000000000
0003C000000000
ENDCHAR
STARTCHAR q
ENCODING 113
SWIDTH 412 0
DWIDTH 12 0
BBX 11 23 0 -9
BITMAP
00007CEC8100
002CE87AFC10
01DD20006F60
08F200002F70
0E8000006F50
4F3000009F40
6E000000BF30
7D000000DF20
6E000000EF00
3F400000FE00
0DD20001FD00
05FE867BFB00
006FFFFFFB00
00015655FB00
00000000CC00
00000000BD00
00000000AE00
000000009F00
000000009F10
000000008F30
000000007F30
000000005F40
000000001C30
ENDCHAR
STARTCHAR r
ENCODING 114
SWIDTH 346 0
DWIDTH 10 0
BBX 10 13 0 0
BITMAP
0001688510
36AFEFFFE2
8FD40037A5
7F60000000
5F40000000
4F50000000
1F70000000
0DB0000000
09F1000000
05F6000000
01FA000000
00AD000000
003B000000
ENDCHAR
STARTCHAR s
ENCODING 115
SWIDTH 514 0
DWIDTH 14 0
BBX 14 13 0 0
BITMAP
0016ABA7100000
03DFDBCFE30000
0DD40001AA0000
0E9000008B0000
0AD10000530000
02DE9632000000
0016BEFFFDA500
0000001347CFB0
000000000009F6
371000000004F9
2ED500000009F7
03DFDA9889DFC1
0016ACEFFEC710
ENDCHAR
STARTCHAR t
ENCODING 116
SWIDTH 328 0
DWIDTH 9 0
BBX 9 17 0 0
BITMAP
0007D10000
0008F30000
0007F40000
0006F50000
0007F50000
0008F60000
8CEFFFFEB0
39CDFD9970
0005F60000
0005F70000
0006F80000
0005F80000
0005F80000
0004F90000
0002F90000
0000DA0000
0000570000
ENDCHAR
STARTCHAR u
ENCODING 117
SWIDTH 501 0
DWIDTH 14 0
BBX 14 14 0 0
BITMAP
01000000000000
3F200000000000
8F00000000A300
9D00000000F900
8E00000000FC00
6F10000000FD00
4F40000001FE00
1F80000002FF00
0BE1000008FF10
05F700003FFF50
00BF5003EC4EA0
002EFBAFC108F1
0002AEE91004F6
000000000001C7
ENDCHAR
STARTCHAR v
ENCODING 118
SWIDTH 389 0
DWIDTH 11 0
BBX 11 11 0 0
BITMAP
440000000000
8F3000001530
2FB000008F30
0AF20002F900
03F80008F200
00BE001EC000
003F705F6000
000BE2AF1000
0003FDEA0000
00009FF30000
00001B900000
ENDCHAR
STARTCHAR w
ENCODING 119
SWIDTH 656 0
DWIDTH 18 0
BBX 18 12 0 0
BITMAP
063000000000000000
1E6000000000000000
6F3000000000006A00
9F0000003C00001E70
BD0000006F200008E0
AD0000006F400003F4
8F1000007F600001F8
4F5000009F900001F9
0CB00003EFE10005F8
04F7006EFAFB325EF3
008FDEFF707FFFFF90
0005CEB40004888600
ENDCHAR
STARTCHAR x
ENCODING 120
SWIDTH 448 0
DWIDTH 13 0
BBX 13 13 0 -2
BITMAP
A4000000005C30
9F50000009FB10
1CF60001BF8000
02DF604DD40000
002DFDFB100000
0002EFC0000000
0002FFF7000000
001C86EF800000
009A002DF80000
03F20002EF6000
069000003EF300
0000000004EA00
00000000003300
ENDCHAR
STARTCHAR y
ENCODING 121
SWIDTH 487 0
DWIDTH 14 0
BBX 14 27 0 -14
BITMAP
00000000000300
58000000002B00
8A000000003E00
7D000000003F30
6F000000002F60
4F300000001F80
1F800000000FA0
0BD00000000FC0
04F50000005FD0
00BD200004EFF0
001DD5249FDDF1
0001BFFFE604F1
000004761001F2
000000000001F2
000000000002F2
000000000003F2
000000000004F1
000000000006F0
000000000008E0
00000000000AD0
03000000000CA0
0BA00000001F70
07F90000005F30
00CFB10000CC00
001BFE623BF500
00006DFFFF9000
00000058950000
ENDCHAR
STARTCHAR z
ENCODING 122
SWIDTH 459 0
DWIDTH 13 0
BBX 12 15 0 0
BITMAP
001467620000
1AFFFFFF7000
6FA22228F300
15000002F700
00000002F600
00000007F200
0000001ED000
04689BDFED90
0DFFFFF97620
00007F900000
0004FB000000
001EE1000001
007FD10026BE
008FFEDEFFF9
0007CFEDA720
ENDCHAR
STARTCHAR braceleft
ENCODING 123
SWIDTH 393 0
DWIDTH 11 0
BBX 11 28 0 -3
BITMAP
000028DFD600
0008FE96AF20
00BF81000720
09F700000000
2FB000000000
6F3000000000
7D0000000000
5E0000000000
1E7000000000
08F700000000
00AFD6100000
0008EFE81000
00003FFF6000
0004EFFFB000
03AFB506F400
0EB30006F600
0100000CF300
0000009F8000
00001BF80000
0003DD400000
002EC1000000
00CD10000000
02F500000000
02F300000000
00EB00000000
008F91000130
001DFECCEFB0
00018AA97300
ENDCHAR
STARTCHAR bar
ENCODING 124
SWIDTH 149 0
DWIDTH 4 0
BBX 4 18 0 0
BITMAP
7600
7C00
4F10
1F50
0B80
09B0
06D0
05F1
04F2
03F3
03F5
03F6
03F6
02F6
02F6
01F6
00F8
00D7
ENDCHAR
STARTCHAR braceright
ENCODING 125
SWIDTH 440 0
DWIDTH 12 0
BBX 12 34 0 -7
BITMAP
035544410000
9FFFFFFE7000
AD71014BF700
2BD20000CE00
000000009F30
00000000AF20
00000005FB00
0000005FD100
000006FC1000
00006F900000
0005F8000000
000CD0000000
000CC1000000
0008FFEDDC00
0006FFDCB900
0008D2000000
0008E2000000
0002EC100000
00004EB10000
000003EA0000
0000003E8000
00000006F300
00000000CB00
000000003F50
000000000AC0
0000000004F3
0000000000E7
0000000000C9
0000000000D8
7200000004F5
DB1000002DE1
6FE71016EF50
06DFFEFFC400
000255420000
ENDCHAR
STARTCHAR asciitilde
ENCODING 126
SWIDTH 402 0
DWIDTH 11 0
BBX 11 5 0 11
BITMAP
001100000100
08FFA2005E40
3F519FABF600
5D0004BC5000
180000000000
ENDCHAR
STARTCHAR nonbreakingspace
ENCODING 160
SWIDTH 375 0
DWIDTH 11 0
BBX 1 1 0 0
BITMAP
00
ENDCHAR
STARTCHAR exclamdown
ENCODING 161
SWIDTH 149 0
DWIDTH 4 0
BBX 4 19 0 0
BITMAP
3ED4
4FF9
0251
0000
0000
0110
0AA0
0BA0
0CA0
0C90
0C90
0C90
0C90
0C80
0C80
0C80
0C70
0C70
0850
ENDCHAR
STARTCHAR cent
ENCODING 162
SWIDTH 449 0
DWIDTH 13 0
BBX 12 17 0 -2
BITMAP
000007500000
000007B00000
000018E30000
0007EFFFD300
00AF73F7CD00
07F501F72D00
1EA000F90600
4F5000FA0000
7F2000FA0000
7F2000FA0000
5F5000EA0000
2FC000EA0000
0BFC30EA0000
02DFFDFD8887
0018DFFFECA5
000001D80000
000000710000
ENDCHAR
STARTCHAR sterling
ENCODING 163
SWIDTH 758 0
DWIDTH 21 0
BBX 21 21 0 0
BITMAP
0000000000000003310000
00000000000008EFFFA100
000000000000AFA669FB00
000000000005F500006F40
00000000000C7000000C70
00000000003F1000000330
00000000009A0000000000
0000000002F60000000000
000000001CFB9999600000
0000258CFFFFFFEFC00000
0003FFDBBFF92002200000
000031000CB00000000000
000000000E400000000000
000000003E000000000000
000000008A000000000000
00000001E6000000000000
00000008E1000000000000
29AAA88FD6654000000000
AFFFFFFFFFFFFE60000000
8FFFFFE9789ABA60000000
08EFD71000000000000000
ENDCHAR
STARTCHAR currency
ENCODING 164
SWIDTH 618 0
DWIDTH 17 0
BBX 16 15 0 0
BITMAP
1C50000000000013
09F80028CEEA23DC
00BFB9FFFFFFEEB1
001CFFA41027EF20
0008F60000002D80
000E9000000005E0
002F3000000002F2
003F2000000004F1
001F500000000AD0
000AD10000007F70
0004FB200019FB00
000CFDEB9BEFE100
006F70489864EA00
00BA000000004E70
0030000000000210
ENDCHAR
STARTCHAR yen
ENCODING 165
SWIDTH 389 0
DWIDTH 11 0
BBX 12 22 0 -1
BITMAP
0A6000000000
0AF2000004C2
03F800001EB0
00CC00009F40
005F1003FB00
000D500AF400
0007B03FB000
0001E59F4000
00009FEB0000
00002FF40000
00000CD00000
24555DC20000
4ACDFFFFE600
00000FA34100
00113F910000
0EFFFFFFC200
0366AFA86000
00006F500000
00008F400000
00009F300000
0000BF200000
000022000000
ENDCHAR
STARTCHAR brokenbar
ENCODING 166
SWIDTH 117 0
DWIDTH 3 0
BBX 3 17 0 -1
BITMAP
2E10
3F50
3F60
3F50
3F40
3F30
3F30
0200
5F40
6F50
5F50
5F50
4F60
3F60
1F60
0D50
0110
ENDCHAR
STARTCHAR section
ENCODING 167
SWIDTH 514 0
DWIDTH 14 0
BBX 14 19 1 0
BITMAP
00157762000000
05EFFFFFC50000
3FD63348DF9000
6F3000001BF600
3F500000006600
0BE73000000000
01DFFFDCA73000
3EFFDCBAAEFC20
DF600000006FC0
FC000000000CF2
CE200000000CF1
3FE9644446CFA0
02AEFFFFFFF800
000034557CFB00
0000000000AF60
85000000004F90
6FB20000009F70
07FFC9889DFC10
0028CEFFEC7100
ENDCHAR
STARTCHAR dieresis
ENCODING 168
SWIDTH 397 0
DWIDTH 11 0
BBX 8 3 1 12
BITMAP
05920195
1EF909FF
0AE405E9
ENDCHAR
STARTCHAR copyright
ENCODING 169
SWIDTH 667 0
DWIDTH 19 0
BBX 18 17 1 -1
BITMAP
000026898510000000
0007FFEFFFFA300000
007E610027CFF70000
05F400068515EF9000
1D8003DEDFD21CF600
6F102E9103E701CE10
BA009B000076002F70
F601F6000031000AC0
F403F40000000005F1
E604F50000000002F3
CB01F90000000002F4
7F50BF5101232005F3
1EE41BFFFFFFE05EB0
04FF812467767CFB10
004EFE9679CFFD6000
00017CFFFDA7300000
000000010000000000
ENDCHAR
STARTCHAR ordfeminine
ENCODING 170
SWIDTH 266 0
DWIDTH 7 0
BBX 7 8 0 6
BITMAP
00482000
0066C200
00002C00
02897D40
2C525E80
740003A0
4A202460
05CEEA40
ENDCHAR
STARTCHAR guillemotleft
ENCODING 171
SWIDTH 755 0
DWIDTH 21 0
BBX 20 14 0 0
BITMAP
00000000000000000030
00000000000000002BF4
0000000000043008FD30
0000000003BF72CF9100
000000007FD46ED40000
0000002CF92BF8100000
000006ED44ED30000000
0001AF817FA100000000
004ED307FD1000000000
06FB102EFFFDA8630000
6FF6200169CEFFFFE910
AFFFFEC974101246CF70
0158ACEFFFE600000210
0000000026CB00000000
ENDCHAR
STARTCHAR logicalnot
ENCODING 172
SWIDTH 369 0
DWIDTH 10 0
BBX 9 5 1 7
BITMAP
2333333320
EFFFFFFF90
5543334C90
0000000C80
0000000C60
ENDCHAR
STARTCHAR hyphen_
ENCODING 173
SWIDTH 375 0
DWIDTH 11 0
BBX 10 3 0 6
BITMAP
05ACCDEEB2
6FFECBABD5
2310000000
ENDCHAR
STARTCHAR registered
ENCODING 174
SWIDTH 708 0
DWIDTH 20 0
BBX 18 17 1 0
BITMAP
000000110000000000
00008EFFFD93000000
002DD867AEFFA20000
01CB1000005CFE3000
09E1579A98406FE200
2F5BFB9889DE44FB00
8E0B3360001DE16F50
D80107F1000EF20CB0
F50007F767BF7006F1
E60006FDCA720002F3
D90004FE50000001F5
9E2002F7E8000002F5
3FB000E53DC2000AF1
09FB10A5019E54CF60
00BFE820014BFFD500
0007EFFEEFFEA50000
000014798630000000
ENDCHAR
STARTCHAR macron
ENCODING 175
SWIDTH 287 0
DWIDTH 8 0
BBX 8 3 1 13
BITMAP
00012100
7EFFFFC0
FDA879B1
ENDCHAR
STARTCHAR degree
ENCODING 176
SWIDTH 254 0
DWIDTH 7 0
BBX 6 8 0 8
BITMAP
02BEA0
1C53C6
84001B
A0000B
A0000C
92004C
4C24E5
06EE60
ENDCHAR
STARTCHAR plusminus
ENCODING 177
SWIDTH 459 0
DWIDTH 13 0
BBX 13 14 0 0
BITMAP
00000400000000
00004F20000000
00002F60000000
00000EB0000000
00000CE1000000
00026EFECA8620
5BEFFFFFFFFF50
597538FA222200
000004F9000000
000002F9000000
000000F9100000
0037ACFFFFEB10
06FFDB98889910
01200000000000
ENDCHAR
STARTCHAR twosuperior
ENCODING 178
SWIDTH 296 0
DWIDTH 8 0
BBX 8 10 0 6
BITMAP
00002000
0007BB00
000A0940
00010580
00000490
00000770
00000B30
47203900
AFFCE610
19A88CE1
ENDCHAR
STARTCHAR threesuperior
ENCODING 179
SWIDTH 204 0
DWIDTH 6 0
BBX 7 10 -1 7
BITMAP
00110000
0ACBD200
03003800
0002A500
03CF8000
0059E600
00001C30
1B000580
07B20780
005DFB10
ENDCHAR
STARTCHAR acute
ENCODING 180
SWIDTH 180 0
DWIDTH 5 0
BBX 5 5 0 11
BITMAP
000120
004D60
08F900
7F8000
A70000
ENDCHAR
STARTCHAR mu
ENCODING 181
SWIDTH 501 0
DWIDTH 14 0
BBX 14 16 0 -2
BITMAP
02000000000000
4F200000000000
8F00000000B400
9D00000000F900
8E00000000FC00
8F10000000FD00
8F40000001FE00
8F90000002FF00
8FE1000008FF10
8FF800004FFF50
9EDF6004EF7FA0
9E4FFCAFF50DF1
9D03AEFD4007F6
9D0000100001C7
9D000000000000
68000000000000
ENDCHAR
STARTCHAR paragraph
ENCODING 182
SWIDTH 413 0
DWIDTH 12 0
BBX 11 16 0 -1
BITMAP
000134443000
009FFFFFFA00
09FFFFFFFF10
2FFFFFFEBF30
6FFFFFFD3F50
7FFFFFFB2F60
4FFFFFFA1F70
069989F92F80
000000E92F90
000000D82F90
000000D83F90
000000E83F80
000000E83F70
000000D92F60
000000CA1F40
000000330900
ENDCHAR
STARTCHAR periodcentered
ENCODING 183
SWIDTH 212 0
DWIDTH 6 0
BBX 4 4 1 5
BITMAP
0100
2EE4
8FFB
3EE4
ENDCHAR
STARTCHAR cedilla
ENCODING 184
SWIDTH 445 0
DWIDTH 12 0
BBX 8 10 4 -9
BITMAP
26000000
5D000000
4E000000
0DB41000
029DFC50
000019F3
320000F7
5F7001F7
07FDADB1
00488400
ENDCHAR
STARTCHAR onesuperior
ENCODING 185
SWIDTH 197 0
DWIDTH 6 0
BBX 6 11 -1 6
BITMAP
00000C
00002E
00007D
0004FB
004EF9
04E3F7
3E40F5
2301F3
0002F0
0003C0
000380
ENDCHAR
STARTCHAR ordmasculine
ENCODING 186
SWIDTH 254 0
DWIDTH 7 0
BBX 6 8 0 8
BITMAP
02BEA0
1C53C6
84001B
A0000B
A0000C
92004C
4C24E5
06EE60
ENDCHAR
STARTCHAR guillemotright
ENCODING 187
SWIDTH 659 0
DWIDTH 18 0
BBX 18 14 0 0
BITMAP
000000075000000000
2D80000CF910000000
0BFB3001AFE9400000
007EFD7204BFFD9520
00017DFFDA627BEFF4
00000037AFF1001FF4
000000005FE0009FB0
00000003EE401AFB10
0000006EE303CF8000
00001AFB107FE40000
0004DF702BFB100000
008FD404EF60000000
0BFA100EC300000000
2E5000040000000000
ENDCHAR
STARTCHAR onequarter
ENCODING 188
SWIDTH 626 0
DWIDTH 18 0
BBX 16 22 0 -1
BITMAP
0000000002000000
0000000058000000
0000170097000000
00006A00B5000000
00009800D2000000
0005F602E0000000
005FF506B0000000
04D6F30A80000000
3E33F10D50000000
3305D02F10000000
0006B06D02200000
000780A90B700000
000650E52F200000
000003F16B000009
000007D07700005F
00000B90690002DC
00000E502E404DF9
00004F1006FFF9B8
0000AB000024108A
0000E6000000007D
0002F1000000005B
0002A00000000000
ENDCHAR
STARTCHAR onehalf
ENCODING 189
SWIDTH 566 0
DWIDTH 16 0
BBX 15 22 0 -1
BITMAP
0000000002000000
000002002C000000
00001E005B000000
00003E0079000000
00007D00A6000000
0002EB00E3000000
001DF903F0000000
00CDF807C0000000
0AC2F60B80000000
8E22F41F40022000
7203F24F105DD400
0005F09C00B24C00
0006C0D800600E20
0006A2F400000C30
000566E000000C40
00000AA000000E20
00000E6000003D00
00004F2100009600
0000AC2FF946C000
0000E71EFFFFD620
0003F20289769DC0
0002A00000000000
ENDCHAR
STARTCHAR threequarters
ENCODING 190
SWIDTH 566 0
DWIDTH 16 0
BBX 16 22 0 -2
BITMAP
0000000004000000
000000001D000000
000000004B000000
1777100069000000
4A67B00096000000
0000B000D3000000
004A8001F1000000
0CFE1005C0100000
0049D20997800000
00005A0D6B400000
95000C2F2E000020
2D612D6D2B0000C2
01AED59A2A0004E0
000000D60D001DC0
000002F20AA6CFA0
000006D002DFA5B0
00000A90000003C0
00001E50000003E0
00005F10000001D0
00009B0000000000
0000C60000000000
0000A10000000000
ENDCHAR
STARTCHAR questiondown
ENCODING 191
SWIDTH 272 0
DWIDTH 8 0
BBX 8 21 0 0
BITMAP
0DB00000
0A800000
00000000
00000000
00000000
00000000
00000000
07874000
0ADFFC00
0001DE00
0006FA00
002EF300
00BF8000
05FC0000
0CF30000
2FB00000
4F700000
3F700000
0DD10003
03EE98BE
0018CC93
ENDCHAR
STARTCHAR Agrave
ENCODING 192
SWIDTH 562 0
DWIDTH 16 0
BBX 15 26 0 0
BITMAP
0000017200000000
000000CE50000000
0000001CF5000000
0000000196000000
0000003420000000
00006EFFFC200000
0008E6116DE30000
003F400001DD1000
009A0000003F7000
00D500000009D000
02F100000003F400
04D000000000C900
06B0000000008D00
07A0000000005F10
0890000000003F50
0990000000002F70
0AC6554321004F90
5FFFDDDEFFFEEFB0
0BE1000002454DC0
07D0000000000BD0
07E0000000000AE0
07F10000000009F0
05F4000000000BF0
03F7000000000DE0
01F9000000001FC0
0089000000001F60
ENDCHAR
STARTCHAR Aacute
ENCODING 193
SWIDTH 562 0
DWIDTH 16 0
BBX 15 27 0 0
BITMAP
0000000300000000
0000007E20000000
00001CF500000000
0000CE4000000000
0000D30000000000
0000003420000000
00006EFFFC200000
0008E6116DE30000
003F400001DD1000
009A0000003F7000
00D500000009D000
02F100000003F400
04D000000000C900
06B0000000008D00
07A0000000005F10
0890000000003F50
0990000000002F70
0AC6554321004F90
5FFFDDDEFFFEEFB0
0BE1000002454DC0
07D0000000000BD0
07E0000000000AE0
07F10000000009F0
05F4000000000BF0
03F7000000000DE0
01F9000000001FC0
0089000000001F60
ENDCHAR
STARTCHAR Acircumflex
ENCODING 194
SWIDTH 562 0
DWIDTH 16 0
BBX 15 28 0 0
BITMAP
0000004400000000
000000CF30000000
000003FFD1000000
00001CEEFC000000
0002DF42EF700000
000BE5003EA00000
0001103421200000
00006EFFFC200000
0008E6116DE30000
003F400001DD1000
009A0000003F7000
00D500000009D000
02F100000003F400
04D000000000C900
06B0000000008D00
07A0000000005F10
0890000000003F50
0990000000002F70
0AC6554321004F90
5FFFDDDEFFFEEFB0
0BE1000002454DC0
07D0000000000BD0
07E0000000000AE0
07F10000000009F0
05F4000000000BF0
03F7000000000DE0
01F9000000001FC0
0089000000001F60
ENDCHAR
STARTCHAR Atilde
ENCODING 195
SWIDTH 562 0
DWIDTH 16 0
BBX 15 26 0 0
BITMAP
0000200000010000
001CFE70009D0000
009D13DD9DD20000
00B70018DB100000
0044003420000000
00006EFFFC200000
0008E6116DE30000
003F400001DD1000
009A0000003F7000
00D500000009D000
02F100000003F400
04D000000000C900
06B0000000008D00
07A0000000005F10
0890000000003F50
0990000000002F70
0AC6554321004F90
5FFFDDDEFFFEEFB0
0BE1000002454DC0
07D0000000000BD0
07E0000000000AE0
07F10000000009F0
05F4000000000BF0
03F7000000000DE0
01F9000000001FC0
0089000000001F60
ENDCHAR
STARTCHAR Adieresis
ENCODING 196
SWIDTH 562 0
DWIDTH 16 0
BBX 15 26 0 0
BITMAP
000059102A400000
0001FF80AFE00000
0000BD406E800000
0000000000000000
0000003420000000
00006EFFFC200000
0008E6116DE30000
003F400001DD1000
009A0000003F7000
00D500000009D000
02F100000003F400
04D000000000C900
06B0000000008D00
07A0000000005F10
0890000000003F50
0990000000002F70
0AC6554321004F90
5FFFDDDEFFFEEFB0
0BE1000002454DC0
07D0000000000BD0
07E0000000000AE0
07F10000000009F0
05F4000000000BF0
03F7000000000DE0
01F9000000001FC0
0089000000001F60
ENDCHAR
STARTCHAR Aring
ENCODING 197
SWIDTH 562 0
DWIDTH 16 0
BBX 15 26 0 0
BITMAP
0000016830000000
00001C88E3000000
0000770078000000
00006800B6000000
00000BCEC0000000
00006EFFFC300000
0008E6116DE30000
003F400001DD1000
009A0000003F7000
00D500000009D000
02F100000003F400
04D000000000C900
06B0000000008D00
07A0000000005F10
0890000000003F50
0990000000002F70
0AC6554321004F90
5FFFDDDEFFFEEFB0
0BE1000002454DC0
07D0000000000BD0
07E0000000000AE0
07F10000000009F0
05F4000000000BF0
03F7000000000DE0
01F9000000001FC0
0089000000001F60
ENDCHAR
STARTCHAR AE
ENCODING 198
SWIDTH 960 0
DWIDTH 27 0
BBX 27 22 0 0
BITMAP
0000003420000000000000000000
00006EFFFC200000000000000000
0008E6116DE30000000000000000
003F400001DD1000000000000000
009A0000003F7056554433332000
00D500000009D2FFFFFFFFFFF600
02F100000003F6F9554433223600
04D000000000CBF6000000000000
06B0000000008FF6000000000000
07A0000000005FF6000000000000
0890000000003FF6000000013100
0990000000002FF823579CEFD100
0AC6554321004FFFFFEDCA840000
5FFFDDDEFFFEEFF7210000000000
0BE1000002454DF1000000000000
07D0000000000BF0000000000000
07E0000000000AF0000000000000
07F10000000009F0000000000000
05F4000000000AF0000000000000
03F7000000000DF1000013466500
01F9000000001FFFDDEFFFFFFE20
0089000000001E79CEEEEDB96100
ENDCHAR
STARTCHAR Ccedilla
ENCODING 199
SWIDTH 515 0
DWIDTH 14 0
BBX 14 28 0 -9
BITMAP
00000000010000
0000003AEFB000
000008FFBDF000
00009FA205C000
0009E5000A4000
004E4000020000
01D50000000000
07B00000000000
0D400000000000
3E000000000000
6D000000000000
7D000000000000
6E000000000000
4F200000000000
1F600000000000
0AD00000000000
03FB1000369BD7
008FFDDFFFFD81
0006FFEA741000
0000F400000000
0000D500000000
00007E62000000
000006CFE91000
000000005E9000
0001400009D000
0001DB200AC000
00003EEBBE3000
00000178610000
ENDCHAR
STARTCHAR Egrave
ENCODING 200
SWIDTH 524 0
DWIDTH 15 0
BBX 14 23 0 0
BITMAP
00000640000000
000006F9000000
0000008FA00000
00000005A00000
00000000000000
03543322222100
0FFFFFFFFFFF70
1FA66554443480
1F800000000000
1F800000000000
1F800000000000
1F800000001110
1F912368BDFE20
6FFFFFFDB96100
4F942100000000
3F300000000000
4F100000000000
6F100000000000
7F100000000000
7F100000000000
5F200000134540
1DECCDEFFFFFF4
02ADFFFFECA820
ENDCHAR
STARTCHAR Eacute
ENCODING 201
SWIDTH 524 0
DWIDTH 15 0
BBX 14 23 0 0
BITMAP
00000000300000
0000002CA00000
000004EC100000
00003FB1000000
00006A00000000
03543322222100
0FFFFFFFFFFF70
1FA66554443480
1F800000000000
1F800000000000
1F800000000000
1F800000001110
1F912368BDFE20
6FFFFFFDB96100
4F942100000000
3F300000000000
4F100000000000
6F100000000000
7F100000000000
7F100000000000
5F200000134540
1DECCDEFFFFFF4
02ADFFFFECA820
ENDCHAR
STARTCHAR Ecircumflex
ENCODING 202
SWIDTH 524 0
DWIDTH 15 0
BBX 14 25 0 0
BITMAP
00000016100000
0000005FA00000
000000BFF70000
000006FDFF5000
00007FB09FE000
0004FB1009F200
00002000003000
03543322222100
0FFFFFFFFFFF70
1FA66554443480
1F800000000000
1F800000000000
1F800000000000
1F800000001110
1F912368BDFE20
6FFFFFFDB96100
4F942100000000
3F300000000000
4F100000000000
6F100000000000
7F100000000000
7F100000000000
5F200000134540
1DECCDEFFFFFF4
02ADFFFFECA820
ENDCHAR
STARTCHAR Edieresis
ENCODING 203
SWIDTH 524 0
DWIDTH 15 0
BBX 14 22 0 0
BITMAP
000078003A2000
0004FF50DFB000
0001CC208E6000
00000000000000
03543322222100
0FFFFFFFFFFF70
1FA66554443480
1F800000000000
1F800000000000
1F800000000000
1F800000001110
1F912368BDFE20
6FFFFFFDB96100
4F942100000000
3F300000000000
4F100000000000
6F100000000000
7F100000000000
7F100000000000
5F200000134540
1DECCDEFFFFFF4
02ADFFFFECA820
ENDCHAR
STARTCHAR Igrave
ENCODING 204
SWIDTH 167 0
DWIDTH 5 0
BBX 6 22 -1 0
BITMAP
450000
3FC100
05ED10
003B20
000000
000000
042000
08A000
05F100
02F500
00D900
009D00
006F10
004F30
001F60
000F80
000DB0
000CD0
000AF0
0008F2
0006F3
0002D2
ENDCHAR
STARTCHAR Iacute
ENCODING 205
SWIDTH 167 0
DWIDTH 5 0
BBX 6 21 -1 0
BITMAP
000120
004D70
07FA00
6F9000
980000
042000
08A000
05F100
02F500
00D900
009D00
006F10
004F30
001F60
000F80
000DB0
000CD0
000AF0
0008F2
0006F3
0002D2
ENDCHAR
STARTCHAR Icircumflex
ENCODING 206
SWIDTH 167 0
DWIDTH 5 0
BBX 9 25 -2 0
BITMAP
0000610000
0003FB0000
000AFF8000
005FDFF600
06FC08FE10
3FC1008F30
0200000300
0000000000
0000000000
0042000000
008A000000
005F100000
002F500000
000D900000
0009D00000
0006F10000
0004F30000
0001F60000
0000F80000
0000DB0000
0000CD0000
0000AF0000
00008F2000
00006F3000
00002D2000
ENDCHAR
STARTCHAR Idieresis
ENCODING 207
SWIDTH 167 0
DWIDTH 5 0
BBX 8 19 -3 0
BITMAP
3A300960
CFC07FF3
7E603DB1
00042000
0008A000
0005F100
0002F500
0000D900
00009D00
00006F10
00004F30
00001F60
00000F80
00000DB0
00000CD0
00000AF0
000008F2
000006F3
000002D2
ENDCHAR
STARTCHAR Eth
ENCODING 208
SWIDTH 741 0
DWIDTH 21 0
BBX 20 19 0 -1
BITMAP
00257898630000000000
2CFFFFFFFFE930000000
6C631002FEAEFC400000
00000000DE006DF91000
00000000AF00019FC100
000000008F100006FC10
000000005F3000006F90
000000003F6343100AF3
0000003CFFFFFFE102F9
000000ADBEC6579100CC
000000000AB00000009E
0000000009F0000000BE
0000000008F2000001EC
0000000008F2000009F7
0000000008F100007FE1
000000041250002AFF40
0000001FFC857AFFE400
00000005CFFFFFD71000
00000000024441000000
ENDCHAR
STARTCHAR Ntilde
ENCODING 209
SWIDTH 609 0
DWIDTH 17 0
BBX 17 20 0 0
BITMAP
000001200000100000
00005EFB4003D70000
0001E817FAAE800000
0002F1003AD7000000
000090000000000000
0C7000000000000000
0CB000000000C60000
0BF100000000DF3000
0AF5000000009FA000
0AFA000000002FF200
0BFE1000000008F700
0CFF7000000001EC00
0DFFD0000000009F10
0E84F6000000005F30
0F50AE100000005F50
2F601EB00000007F30
2F8005FA100000DE00
3F90007FD6324CF600
3FA00007FFFFFF8000
0D50000027AA830000
ENDCHAR
STARTCHAR Ograve
ENCODING 210
SWIDTH 609 0
DWIDTH 17 0
BBX 17 20 0 0
BITMAP
000000072000000000
0000000AF600000000
00000000AF70000000
000000000880000000
000000000000000000
000000000000000000
000158630000000000
004EFFFFD820000000
04FB3137BFF9100000
0DB0000003AFD30000
4F2000000005EE3000
7D00000000003ED100
7D000000000005F700
6E000000000000CD00
3F5000000000007F20
0DD100000000005F30
05FC1000000001CE00
009FD50000006DF500
0008FFD878BEFC4000
000028CEFDB7300000
ENDCHAR
STARTCHAR Oacute
ENCODING 211
SWIDTH 609 0
DWIDTH 17 0
BBX 17 20 0 0
BITMAP
000000000300000000
000000018E10000000
0000002CE400000000
000000DE3000000000
000002D20000000000
000000000000000000
000158630000000000
004EFFFFD820000000
04FB3137BFF9100000
0DB0000003AFD30000
4F2000000005EE3000
7D00000000003ED100
7D000000000005F700
6E000000000000CD00
3F5000000000007F20
0DD100000000005F30
05FC1000000001CE00
009FD50000006DF500
0008FFD878BEFC4000
000028CEFDB7300000
ENDCHAR
STARTCHAR Ocircumflex
ENCODING 212
SWIDTH 609 0
DWIDTH 17 0
BBX 17 22 0 0
BITMAP
000002500000000000
000008F60000000000
00001EFF4000000000
0000AFDFE200000000
001AF71CFA00000000
008F8001CD00000000
001200001300000000
000000000000000000
000158630000000000
004EFFFFD820000000
04FB3137BFF9100000
0DB0000003AFD30000
4F2000000005EE3000
7D00000000003ED100
7D000000000005F700
6E000000000000CD00
3F5000000000007F20
0DD100000000005F30
05FC1000000001CE00
009FD50000006DF500
0008FFD878BEFC4000
000028CEFDB7300000
ENDCHAR
STARTCHAR Otilde
ENCODING 213
SWIDTH 609 0
DWIDTH 17 0
BBX 17 19 0 0
BITMAP
000021000001000000
001BFE81008E000000
008E23CE9CD2000000
00A80007DB20000000
003500000000000000
000158630000000000
004EFFFFD820000000
04FB3137BFF9100000
0DB0000003AFD30000
4F2000000005EE3000
7D00000000003ED100
7D000000000005F700
6E000000000000CD00
3F5000000000007F20
0DD100000000005F30
05FC1000000001CE00
009FD50000006DF500
0008FFD878BEFC4000
000028CEFDB7300000
ENDCHAR
STARTCHAR Odieresis
ENCODING 214
SWIDTH 609 0
DWIDTH 17 0
BBX 17 19 0 0
BITMAP
000004920195000000
00000EFA09FF100000
000009E504E9000000
000000000000000000
000000000000000000
000158630000000000
004EFFFFD820000000
04FB3137BFF9100000
0DB0000003AFD30000
4F2000000005EE3000
7D00000000003ED100
7D000000000005F700
6E000000000000CD00
3F5000000000007F20
0DD100000000005F30
05FC1000000001CE00
009FD50000006DF500
0008FFD878BEFC4000
000028CEFDB7300000
ENDCHAR
STARTCHAR multiply
ENCODING 215
SWIDTH 448 0
DWIDTH 13 0
BBX 9 8 1 1
BITMAP
5E40002C70
2CF504DE40
01DFDFB100
001EFC0000
002FFF6000
02DC1BF500
0AD201D800
0220001000
ENDCHAR
STARTCHAR Oslash
ENCODING 216
SWIDTH 609 0
DWIDTH 17 0
BBX 17 22 0 -3
BITMAP
000000000010000000
0000000000B5000000
0000000002F5000000
0000000005F2000000
0000000008D0000000
000158630D90000000
004EFFFFEF60000000
04FB3137DFF9100000
0DB00000EBAFD30000
4F200004F605EE3000
7D00000AF1003ED100
7D00001FB00005F700
6E00006F500000CD00
3F5000BE1000007F20
0DD102FA0000005F30
06FC17F5000001CE00
00AFDDE000006DF500
0008FFE978BEFC4000
0000CFDFFDB7300000
0003FA000000000000
0007F3000000000000
000480000000000000
ENDCHAR
STARTCHAR Ugrave
ENCODING 217
SWIDTH 571 0
DWIDTH 16 0
BBX 16 20 0 0
BITMAP
0000003500000000
0000002FC2000000
00000004ED100000
000000003B300000
0020000000000000
07F3000000057000
0E8000000009D000
2F200000000BF100
3F100000000AF200
3F1000000008F300
3F2000000005F400
1F4000000002F600
0E6000000000DA00
0C9000000000AE00
08D000000000CF50
03F500000005FFB0
00CD1000004EFFF1
005FC2003AFA3AF6
0009FFDEFE5002E8
00007DFD71000011
ENDCHAR
STARTCHAR Uacute
ENCODING 218
SWIDTH 571 0
DWIDTH 16 0
BBX 16 20 0 0
BITMAP
0000000012000000
00000004D7000000
0000007FA0000000
000006F900000000
0020098000000000
07F3000000057000
0E8000000009D000
2F200000000BF100
3F100000000AF200
3F1000000008F300
3F2000000005F400
1F4000000002F600
0E6000000000DA00
0C9000000000AE00
08D000000000CF50
03F500000005FFB0
00CD1000004EFFF1
005FC2003AFA3AF6
0009FFDEFE5002E8
00007DFD71000011
ENDCHAR
STARTCHAR Ucircumflex
ENCODING 219
SWIDTH 571 0
DWIDTH 16 0
BBX 16 25 0 0
BITMAP
0000000350000000
0000000AF5000000
0000002EFE300000
000000BFEFD10000
00001BF61CF90000
00009F6002DC0000
0000120000130000
0000000000000000
0000000000000000
0020000000000000
07F3000000057000
0E8000000009D000
2F200000000BF100
3F100000000AF200
3F1000000008F300
3F2000000005F400
1F4000000002F600
0E6000000000DA00
0C9000000000AE00
08D000000000CF50
03F500000005FFB0
00CD1000004EFFF1
005FC2003AFA3AF6
0009FFDEFE5002E8
00007DFD71000011
ENDCHAR
STARTCHAR Udieresis
ENCODING 220
SWIDTH 571 0
DWIDTH 16 0
BBX 16 19 0 0
BITMAP
0000196006910000
00007FF22FF80000
00003EA00BD30000
0020000000000000
07F3000000057000
0E8000000009D000
2F200000000BF100
3F100000000AF200
3F1000000008F300
3F2000000005F400
1F4000000002F600
0E6000000000DA00
0C9000000000AE00
08D000000000CF50
03F500000005FFB0
00CD1000004EFFF1
005FC2003AFA3AF6
0009FFDEFE5002E8
00007DFD71000011
ENDCHAR
STARTCHAR Yacute
ENCODING 221
SWIDTH 403 0
DWIDTH 11 0
BBX 11 25 0 -1
BITMAP
000000002000
00000007E200
000001BF5000
00000BE40000
00000D300000
000000000000
790000000000
6E10000007B0
3F9000000BB0
0BF500001E90
02EE40006F50
002DF700DF10
0002BFDBFB00
000006DFF500
0000001EE000
0000002F8000
0000007F3000
000000BC0000
000000F80000
000003F50000
000005F10000
000007F00000
000007F00000
000007F10000
000001500000
ENDCHAR
STARTCHAR Thorn
ENCODING 222
SWIDTH 497 0
DWIDTH 14 0
BBX 13 22 1 -5
BITMAP
8D200000000000
9F300000000000
9F300000000000
9F200000000000
9F100000000000
8F000000000000
8F000000000000
7F356520000000
6FFFFFFD810000
5FE4237CFE5000
5F8000003CF600
4F60000001DE10
3F600000004F50
3FC00000004F50
2FFB200003DF30
1FEFFB99CFF800
0F639EFEDA4000
0F700000000000
0E800000000000
0D900000000000
0CA00000000000
00200000000000
ENDCHAR
STARTCHAR germandbls
ENCODING 223
SWIDTH 590 0
DWIDTH 17 0
BBX 16 24 0 -4
BITMAP
0167530000000000
0AFFFFE920000000
0FFB868DE5000000
1FA00000AF300000
1FB000001F700000
0FC000002F500000
0DD00001BC000000
0BE005AEE2000000
09F13FFFC1000000
07F205DFFE800000
04F300038DFD3000
02F40000006DF500
00F5000000008F60
00D60000000008F3
00B80000000001FB
00A90000000000DE
009A0000000003FE
008B00344457AFE5
009C00CFFFFEC720
009D002443200000
00BE000000000000
00EF100000000000
02FF200000000000
0069200000000000
ENDCHAR
STARTCHAR agrave
ENCODING 224
SWIDTH 505 0
DWIDTH 14 0
BBX 14 19 0 0
BITMAP
00002610000000
00001DE3000000
000002DE300000
0000001A500000
00000000000000
00005DD9200000
0000ECBFF60000
00002002BF6000
000000000BF300
0000000002FB00
0002799741CF30
01AFFFDDFEEFA0
0BFA400029FFE0
4F600000006FF2
7E0000000008F4
5F2000000000D4
0DE72000024662
02CFFEDEFFFFC3
00059CEFEB7200
ENDCHAR
STARTCHAR aacute
ENCODING 225
SWIDTH 505 0
DWIDTH 14 0
BBX 14 20 0 0
BITMAP
00000001200000
0000003C900000
000006FB100000
00005FA0000000
00008900000000
00000000000000
00005DD9200000
0000ECBFF60000
00002002BF6000
000000000BF300
0000000002FB00
0002799741CF30
01AFFFDDFEEFA0
0BFA400029FFE0
4F600000006FF2
7E0000000008F4
5F2000000000D4
0DE72000024662
02CFFEDEFFFFC3
00059CEFEB7200
ENDCHAR
STARTCHAR acircumflex
ENCODING 226
SWIDTH 505 0
DWIDTH 14 0
BBX 14 21 0 0
BITMAP
00000025000000
0000009F600000
000001EFF30000
00000AFDFE2000
0001AF71CFA000
0008F7001CD000
00012000013000
00005DD9200000
0000ECBFF60000
00002002BF6000
000000000BF300
0000000002FB00
0002799741CF30
01AFFFDDFEEFA0
0BFA400029FFE0
4F600000006FF2
7E0000000008F4
5F2000000000D4
0DE72000024662
02CFFEDEFFFFC3
00059CEFEB7200
ENDCHAR
STARTCHAR atilde
ENCODING 227
SWIDTH 505 0
DWIDTH 14 0
BBX 14 20 0 0
BITMAP
00002000000100
004EFC5002C900
00D916EB9EA000
00F30029D90000
00710000000000
00000000000000
00005DD9200000
0000ECBFF60000
00002002BF6000
000000000BF300
0000000002FB00
0002799741CF30
01AFFFDDFEEFA0
0BFA400029FFE0
4F600000006FF2
7E0000000008F4
5F2000000000D4
0DE72000024662
02CFFEDEFFFFC3
00059CEFEB7200
ENDCHAR
STARTCHAR adieresis
ENCODING 228
SWIDTH 505 0
DWIDTH 14 0
BBX 14 18 0 0
BITMAP
00008800492000
0004FF50EFA000
0001DC109E5000
00000000000000
00005DD9200000
0000ECBFF60000
00002002BF6000
000000000BF300
0000000002FB00
0002799741CF30
01AFFFDDFEEFA0
0BFA400029FFE0
4F600000006FF2
7E0000000008F4
5F2000000000D4
0DE72000024662
02CFFEDEFFFFC3
00059CEFEB7200
ENDCHAR
STARTCHAR aring
ENCODING 229
SWIDTH 505 0
DWIDTH 14 0
BBX 14 19 0 0
BITMAP
00000013000000
000009CDC10000
00006800A60000
00007600970000
00002D7AD10000
00005EFE300000
0000ECBFF60000
00002002BF6000
000000000BF300
0000000002FB00
0002799741CF30
01AFFFDDFEEFA0
0BFA400029FFE0
4F600000006FF2
7E0000000008F4
5F2000000000D4
0DE72000024662
02CFFEDEFFFFC3
00059CEFEB7200
ENDCHAR
STARTCHAR ae
ENCODING 230
SWIDTH 881 0
DWIDTH 25 0
BBX 25 15 0 -1
BITMAP
00005DD920000017BC92000000
0000ECBFF60004EE98EE200000
00002002BF604F91002EA00000
000000000BF3DC000008E00000
0000000002FEF4000006F00000
0002799741CFE000002DC00000
01AFFFDDFEEFD00017EE300000
0BFA400029FFE8CBFFB3000000
4F600000006FF5997300000000
7E0000000008F3000000000000
5F2000000001E9000000000000
0DE720000246BF800000000000
02CFFEDEFFFFCAFE8532234510
00059CEFEB72005DFFFFFFD500
00000000000000004799740000
ENDCHAR
STARTCHAR ccedilla
ENCODING 231
SWIDTH 449 0
DWIDTH 13 0
BBX 12 22 0 -9
BITMAP
000004530000
0007EFFFD300
00AF7103CD00
07F400002D00
1EA000000600
4F4000000000
7F2000000000
7F2000000000
5F5000000000
1FC000000000
08FB30000000
009FFDA88887
0003FDEFFEB5
0001F4000000
0000E6000000
00006E852000
0000049CFC20
000000003EA0
000261000AC0
0000CD300CA0
00002DFEEB10
000000453000
ENDCHAR
STARTCHAR egrave
ENCODING 232
SWIDTH 515 0
DWIDTH 14 0
BBX 14 19 0 0
BITMAP
00006300000000
00008F80000000
000009F9000000
0000006A000000
00001575100000
0007FFDFD20000
00AF7103EC0000
06F500006F2000
0DA000002F4000
3F4000006F2000
6F200019FA0000
7F4758EFA10000
6F5EFDA3000000
4F500000000000
0EA00000000000
06F50000000000
00AFA400000000
0008FFFDBBDED3
000028CEFDA610
ENDCHAR
STARTCHAR eacute
ENCODING 233
SWIDTH 515 0
DWIDTH 14 0
BBX 14 20 0 0
BITMAP
00000002100000
0000006E300000
00000AF7000000
0000AF50000000
0000C400000000
00001575100000
0007FFDFD20000
00AF7103EC0000
06F500006F2000
0DA000002F4000
3F4000006F2000
6F200019FA0000
7F4758EFA10000
6F5EFDA3000000
4F500000000000
0EA00000000000
06F50000000000
00AFA400000000
0008FFFDBBDED3
000028CEFDA610
ENDCHAR
STARTCHAR ecircumflex
ENCODING 234
SWIDTH 515 0
DWIDTH 14 0
BBX 14 21 0 0
BITMAP
00000016000000
0000007F800000
000000DFF50000
000008FDFE3000
00009F90AFC000
0006F9000BF000
00003575103000
0007FFDFD20000
00AF7103EC0000
06F500006F2000
0DA000002F4000
3F4000006F2000
6F200019FA0000
7F4758EFA10000
6F5EFDA3000000
4F500000000000
0EA00000000000
06F50000000000
00AFA400000000
0008FFFDBBDED3
000028CEFDA610
ENDCHAR
STARTCHAR edieresis
ENCODING 235
SWIDTH 515 0
DWIDTH 14 0
BBX 14 18 0 0
BITMAP
0003A300960000
000DFC07FF2000
0008E603EB0000
00001575100000
0007FFDFD20000
00AF7103EC0000
06F500006F2000
0DA000002F4000
3F4000006F2000
6F200019FA0000
7F4758EFA10000
6F5EFDA3000000
4F500000000000
0EA00000000000
06F50000000000
00AFA400000000
0008FFFDBBDED3
000028CEFDA610
ENDCHAR
STARTCHAR igrave
ENCODING 236
SWIDTH 174 0
DWIDTH 5 0
BBX 5 17 0 0
BITMAP
571000
2ED200
03EE10
002910
014000
04F100
04F100
04F200
04F400
03F700
02FA00
01FC00
00FF00
00DF30
00AF40
007F50
002E20
ENDCHAR
STARTCHAR iacute
ENCODING 237
SWIDTH 174 0
DWIDTH 5 0
BBX 6 18 -1 0
BITMAP
000050
002CC0
04ED20
2FB100
3A1000
001400
004F10
004F10
004F20
004F40
003F70
002FA0
001FC0
000FF0
000DF3
000AF4
0007F5
0002E2
ENDCHAR
STARTCHAR icircumflex
ENCODING 238
SWIDTH 174 0
DWIDTH 5 0
BBX 9 21 -2 0
BITMAP
0000610000
0003FB0000
0009FF8000
005FDFF600
06FC17FE10
3FC1008F40
0200000300
0000000000
0001400000
0004F10000
0004F10000
0004F20000
0004F40000
0003F70000
0002FA0000
0001FC0000
0000FF0000
0000DF3000
0000AF4000
00007F5000
00002E2000
ENDCHAR
STARTCHAR idieresis
ENCODING 239
SWIDTH 174 0
DWIDTH 5 0
BBX 8 17 -2 0
BITMAP
03300140
2EF30BF9
3FF40CFA
03300140
00014000
0004F100
0004F100
0004F200
0004F400
0003F700
0002FA00
0001FC00
0000FF00
0000DF30
0000AF40
00007F50
00002E20
ENDCHAR
STARTCHAR eth
ENCODING 240
SWIDTH 407 0
DWIDTH 11 0
BBX 12 16 0 -1
BITMAP
18CA61000000
4FBDFE400130
03005DF66DF2
000006EFFFA0
0005EFFCF600
0004D811DC00
000012216F30
005DFFFFDF80
05FB2015AFC0
1EB0000009E0
4F30000004E0
5F30000008D0
2FB100003E90
07FD8559FE20
005DFFFFE400
000024540000
ENDCHAR
STARTCHAR ntilde
ENCODING 241
SWIDTH 459 0
DWIDTH 13 0
BBX 13 18 0 0
BITMAP
00120000010000
05EFC4003D7000
1E807FBAE90000
2F1003AD800000
09000000000000
00000000000000
00004BEE800000
284BFCACFB0000
3FFD40009F7000
3FF300000CE100
3FC0000005F600
2FA0000000EC00
0FB0000000BF00
0EE00000008F30
0BF20000006F50
07F50000005F50
02F80000006F30
00690000006D00
ENDCHAR
STARTCHAR ograve
ENCODING 242
SWIDTH 487 0
DWIDTH 14 0
BBX 13 16 0 0
BITMAP
00000540000000
000005FA000000
0000007FB00000
00000005B00000
00005ADFE91000
002CFDABFFD100
02EC40002BFB00
0CC10000009F40
3F300000000D90
6E000000000BC0
7E000000000DC0
5F200000005FA0
1FA0000003EF40
09F900006FFA00
00AFEA9DFF9000
0005BEFDA40000
ENDCHAR
STARTCHAR oacute
ENCODING 243
SWIDTH 487 0
DWIDTH 14 0
BBX 13 18 0 0
BITMAP
00000001200000
0000004D700000
000007FA000000
00006F90000000
00009800000000
00000000000000
00005ADFE91000
002CFDABFFD100
02EC40002BFB00
0CC10000009F40
3F300000000D90
6E000000000BC0
7E000000000DC0
5F200000005FA0
1FA0000003EF40
09F900006FFA00
00AFEA9DFF9000
0005BEFDA40000
ENDCHAR
STARTCHAR ocircumflex
ENCODING 244
SWIDTH 487 0
DWIDTH 14 0
BBX 13 19 0 0
BITMAP
00000062000000
000001FD100000
000007FFA00000
00003EDFF80000
0004ED15FF3000
001FD2006F5000
00020000031000
00005ADFE91000
002CFDABFFD100
02EC40002BFB00
0CC10000009F40
3F300000000D90
6E000000000BC0
7E000000000DC0
5F200000005FA0
1FA0000003EF40
09F900006FFA00
00AFEA9DFF9000
0005BEFDA40000
ENDCHAR
STARTCHAR otilde
ENCODING 245
SWIDTH 487 0
DWIDTH 14 0
BBX 13 16 0 0
BITMAP
00002000000100
002DFD6001AB00
00BB14DC9DC100
00D50018DA1000
00635ADFE91000
002CFDABFFD100
02EC40002BFB00
0CC10000009F40
3F300000000D90
6E000000000BC0
7E000000000DC0
5F200000005FA0
1FA0000003EF40
09F900006FFA00
00AFEA9DFF9000
0005BEFDA40000
ENDCHAR
STARTCHAR odieresis
ENCODING 246
SWIDTH 487 0
DWIDTH 14 0
BBX 13 15 0 0
BITMAP
0002A400780000
000AFE04FF5000
0005E801DC2000
00005ADFE91000
002CFDABFFD100
02EC40002BFB00
0CC10000009F40
3F300000000D90
6E000000000BC0
7E000000000DC0
5F200000005FA0
1FA0000003EF40
09F900006FFA00
00AFEA9DFF9000
0005BEFDA40000
ENDCHAR
STARTCHAR divide
ENCODING 247
SWIDTH 335 0
DWIDTH 9 0
BBX 8 8 1 2
BITMAP
00050000
000E8000
00054000
14567630
BFFEDFF2
53100010
00041000
000B4000
ENDCHAR
STARTCHAR oslash
ENCODING 248
SWIDTH 487 0
DWIDTH 14 0
BBX 13 13 0 0
BITMAP
00000000088000
000004789F8000
0007EFFFFF8000
01BFA415FFF700
09E4001DD2CF20
2F50009F502E80
6E0004FB000BC0
7D001DE2000CC0
6F10AF60004FA0
2F95FB0002EF50
0AFED1005EFB00
02FFEA9DFFA100
04E8BEFEA40000
ENDCHAR
STARTCHAR ugrave
ENCODING 249
SWIDTH 501 0
DWIDTH 14 0
BBX 14 19 0 0
BITMAP
00026100000000
0001ED20000000
00003EE3000000
000002A4000000
00000000000000
01000000000000
3F200000000000
8F00000000A300
9D00000000F900
8E00000000FC00
6F10000000FD00
4F40000001FE00
1F80000002FF00
0BE1000008FF10
05F700003FFF50
00BF5003EC4EA0
002EFBAFC108F1
0002AEE91004F6
000000000001C7
ENDCHAR
STARTCHAR uacute
ENCODING 250
SWIDTH 501 0
DWIDTH 14 0
BBX 14 20 0 0
BITMAP
00000000200000
0000003C900000
000005FC100000
00004FA0000000
00007900000000
00000000000000
01000000000000
3F200000000000
8F00000000A300
9D00000000F900
8E00000000FC00
6F10000000FD00
4F40000001FE00
1F80000002FF00
0BE1000008FF10
05F700003FFF50
00BF5003EC4EA0
002EFBAFC108F1
0002AEE91004F6
000000000001C7
ENDCHAR
STARTCHAR ucircumflex
ENCODING 251
SWIDTH 501 0
DWIDTH 14 0
BBX 14 21 0 0
BITMAP
00000035000000
000000AF500000
000001EFE30000
00000BFDFD1000
0001BF61CF9000
0009F7001DC000
00012000013000
01000000000000
3F200000000000
8F00000000A300
9D00000000F900
8E00000000FC00
6F10000000FD00
4F40000001FE00
1F80000002FF00
0BE1000008FF10
05F700003FFF50
00BF5003EC4EA0
002EFBAFC108F1
0002AEE91004F6
000000000001C7
ENDCHAR
STARTCHAR udieresis
ENCODING 252
SWIDTH 501 0
DWIDTH 14 0
BBX 14 17 0 0
BITMAP
00069102A30000
002FF70BFD0000
000BD306E70000
01000000000000
3F200000000000
8F00000000A300
9D00000000F900
8E00000000FC00
6F10000000FD00
4F40000001FE00
1F80000002FF00
0BE1000008FF10
05F700003FFF50
00BF5003EC4EA0
002EFBAFC108F1
0002AEE91004F6
000000000001C7
ENDCHAR
STARTCHAR yacute
ENCODING 253
SWIDTH 487 0
DWIDTH 14 0
BBX 14 33 0 -14
BITMAP
00000001200000
0000004D600000
000008F9000000
00007F80000000
0000A700000000
00000000000000
00000000000300
58000000002B00
8A000000003E00
7D000000003F30
6F000000002F60
4F300000001F80
1F800000000FA0
0BD00000000FC0
04F50000005FD0
00BD200004EFF0
001DD5249FDDF1
0001BFFFE604F1
000004761001F2
000000000001F2
000000000002F2
000000000003F2
000000000004F1
000000000006F0
000000000008E0
00000000000AD0
03000000000CA0
0BA00000001F70
07F90000005F30
00CFB10000CC00
001BFE623BF500
00006DFFFF9000
00000058950000
ENDCHAR
STARTCHAR thorn
ENCODING 254
SWIDTH 520 0
DWIDTH 15 0
BBX 14 21 0 -6
BITMAP
00200000000000
08C00000000000
0BA00000000000
0C800000000000
0D600245530000
0E57DFFFFFE800
0EEFE95236DFB0
0EF80000000AF7
0FE000000000DC
0FC0000000009E
0FB000000000CE
1FFDA753237DFA
2FDEFFFFFFFFB1
3F914677775200
3F900000000000
3F800000000000
3F800000000000
3F800000000000
1F800000000000
0E900000000000
02200000000000
ENDCHAR
STARTCHAR ydieresis
ENCODING 255
SWIDTH 487 0
DWIDTH 14 0
BBX 14 31 0 -14
BITMAP
00059102A40000
001FF90AFE0000
000AD405E80000
00000000000000
00000000000300
58000000002B00
8A000000003E00
7D000000003F30
6F000000002F60
4F300000001F80
1F800000000FA0
0BD00000000FC0
04F50000005FD0
00BD200004EFF0
001DD5249FDDF1
0001BFFFE604F1
000004761001F2
000000000001F2
000000000002F2
000000000003F2
000000000004F1
000000000006F0
000000000008E0
00000000000AD0
03000000000CA0
0BA00000001F70
07F90000005F30
00CFB10000CC00
001BFE623BF500
00006DFFFF9000
00000058950000
ENDCHAR
STARTCHAR Amacron
ENCODING 256
SWIDTH 562 0
DWIDTH 16 0
BBX 15 26 0 0
BITMAP
0000001120000000
0003CFFFFE400000
0009EB979A500000
0000000000000000
0000003420000000
00006EFFFC200000
0008E6116DE30000
003F400001DD1000
009A0000003F7000
00D500000009D000
02F100000003F400
04D000000000C900
06B0000000008D00
07A0000000005F10
0890000000003F50
0990000000002F70
0AC6554321004F90
5FFFDDDEFFFEEFB0
0BE1000002454DC0
07D0000000000BD0
07E0000000000AE0
07F10000000009F0
05F4000000000BF0
03F7000000000DE0
01F9000000001FC0
0089000000001F60
ENDCHAR
STARTCHAR amacron
ENCODING 257
SWIDTH 505 0
DWIDTH 14 0
BBX 14 19 0 0
BITMAP
00000012100000
0005DFFFFD2000
000CEB879B3000
00000000000000
00000000000000
00005DD9200000
0000ECBFF60000
00002002BF6000
000000000BF300
0000000002FB00
0002799741CF30
01AFFFDDFEEFA0
0BFA400029FFE0
4F600000006FF2
7E0000000008F4
5F2000000000D4
0DE72000024662
02CFFEDEFFFFC3
00059CEFEB7200
ENDCHAR
STARTCHAR Abreve
ENCODING 258
SWIDTH 562 0
DWIDTH 16 0
BBX 15 26 0 0
BITMAP
0000063009700000
000005D89E300000
0000006A93000000
0000000000000000
0000003420000000
00006EFFFC200000
0008E6116DE30000
003F400001DD1000
009A0000003F7000
00D500000009D000
02F100000003F400
04D000000000C900
06B0000000008D00
07A0000000005F10
0890000000003F50
0990000000002F70
0AC6554321004F90
5FFFDDDEFFFEEFB0
0BE1000002454DC0
07D0000000000BD0
07E0000000000AE0
07F10000000009F0
05F4000000000BF0
03F7000000000DE0
01F9000000001FC0
0089000000001F60
ENDCHAR
STARTCHAR abreve
ENCODING 259
SWIDTH 505 0
DWIDTH 14 0
BBX 14 18 0 0
BITMAP
00009000E10000
0000BA7BC00000
000018A8100000
00000000000000
00005DD9200000
0000ECBFF60000
00002002BF6000
000000000BF300
0000000002FB00
0002799741CF30
01AFFFDDFEEFA0
0BFA400029FFE0
4F600000006FF2
7E0000000008F4
5F2000000000D4
0DE72000024662
02CFFEDEFFFFC3
00059CEFEB7200
ENDCHAR
STARTCHAR Aogonek
ENCODING 260
SWIDTH 562 0
DWIDTH 16 0
BBX 16 26 0 -4
BITMAP
0000003420000000
00006EFFFC200000
0008E6116DE30000
003F400001DD1000
009A0000003F7000
00D500000009D000
02F100000003F400
04D000000000C900
06B0000000008D00
07A0000000005F10
0890000000003F50
0990000000002F70
0AC6554321004F90
5FFFDDDEFFFEEFB0
0BE1000002454DC0
07D0000000000BD0
07E0000000000AE0
07F10000000009F0
05F4000000000BF0
03F7000000000DE0
01F9000000002FC0
008900000008EF60
00000000007F6000
0000000000BA0000
0000000000BE5100
000000000019DEE7
ENDCHAR
STARTCHAR aogonek
ENCODING 261
SWIDTH 505 0
DWIDTH 14 0
BBX 14 18 0 -4
BITMAP
00005DD9200000
0000ECBFF60000
00002002BF6000
000000000BF300
0000000002FB00
0002799741CF30
01AFFFDDFEEFA0
0BFA400029FFE0
4F600000006FF2
7E0000000008F4
5F2000000000D4
0DE72000024662
02CFFEDEFFFFC3
00059CEFFE7200
00000003F40000
00000004F60000
00000000AFDA91
00000000013440
ENDCHAR
STARTCHAR Cacute
ENCODING 262
SWIDTH 515 0
DWIDTH 14 0
BBX 14 24 0 0
BITMAP
00000000030000
000000008E1000
0000001CF50000
000000CE400000
000001D3000000
00000000010000
0000003AEFB000
000008FFBDF000
00009FA205C000
0009E5000A4000
004E4000020000
01D50000000000
07B00000000000
0D400000000000
3E000000000000
6D000000000000
7D000000000000
6E000000000000
4F200000000000
1F600000000000
0AD00000000000
03FB1000369BD7
008FFDDFFFFD81
0005DFEA741000
ENDCHAR
STARTCHAR cacute
ENCODING 263
SWIDTH 449 0
DWIDTH 13 0
BBX 12 19 0 0
BITMAP
000000003000
0000001AD000
000003DE3000
00001ED20000
00003C100000
000000000000
000000000000
00029DFD8100
005FC758FB00
04F800005E00
0DC000000900
4F5000000100
6F2000000000
7F2000000000
5F4000000000
1FB000000000
08FB30000000
00AFFDA98897
00049DEFFEB4
ENDCHAR
STARTCHAR Ccircumflex
ENCODING 264
SWIDTH 515 0
DWIDTH 14 0
BBX 14 25 0 0
BITMAP
00000016000000
0000007F800000
000000DFF50000
000008FDFE3000
00009F90AFC000
0006F9000BF000
00002000023000
0000003AEFB000
000008FFBDF000
00009FA205C000
0009E5000A4000
004E4000020000
01D50000000000
07B00000000000
0D400000000000
3E000000000000
6D000000000000
7D000000000000
6E000000000000
4F200000000000
1F600000000000
0AD00000000000
03FB1000369BD7
008FFDDFFFFD81
0005DFEA741000
ENDCHAR
STARTCHAR ccircumflex
ENCODING 265
SWIDTH 449 0
DWIDTH 13 0
BBX 12 21 0 0
BITMAP
000001600000
000006F90000
00000CFF6000
00007FDFF400
0008FA09FD00
005FA000AF10
000200000300
000000000000
000000000000
00029DFD8100
005FC758FB00
04F800005E00
0DC000000900
4F5000000100
6F2000000000
7F2000000000
5F4000000000
1FB000000000
08FB30000000
00AFFDA98897
00049DEFFEB4
ENDCHAR
STARTCHAR Cdotaccent
ENCODING 266
SWIDTH 515 0
DWIDTH 14 0
BBX 14 23 0 0
BITMAP
00000024000000
0000006F500000
0000002F500000
00000001000000
00000000010000
0000003AEFB000
000008FFBDF000
00009FA205C000
0009E5000A4000
004E4000020000
01D50000000000
07B00000000000
0D400000000000
3E000000000000
6D000000000000
7D000000000000
6E000000000000
4F200000000000
1F600000000000
0AD00000000000
03FB1000369BD7
008FFDDFFFFD81
0005DFEA741000
ENDCHAR
STARTCHAR cdotaccent
ENCODING 267
SWIDTH 449 0
DWIDTH 13 0
BBX 12 16 0 0
BITMAP
000003300000
00000BE00000
000007E00000
000000100000
00029DFD8100
005FC758FB00
04F800005E00
0DC000000900
4F5000000100
6F2000000000
7F2000000000
5F4000000000
1FB000000000
08FB30000000
00AFFDA98897
00049DEFFEB4
ENDCHAR
STARTCHAR Ccaron
ENCODING 268
SWIDTH 515 0
DWIDTH 14 0
BBX 14 23 0 0
BITMAP
00002CA3019E20
0000018EAEF700
00000006FC3000
00000000400000
00000000010000
0000003AEFB000
000008FFBDF000
00009FA205C000
0009E5000A4000
004E4000020000
01D50000000000
07B00000000000
0D400000000000
3E000000000000
6D000000000000
7D000000000000
6E000000000000
4F200000000000
1F600000000000
0AD00000000000
03FB1000369BD7
008FFDDFFFFD81
0005DFEA741000
ENDCHAR
STARTCHAR ccaron
ENCODING 269
SWIDTH 449 0
DWIDTH 13 0
BBX 12 17 0 0
BITMAP
003C9202AE00
00019EAEE500
000008FB2000
000000400000
000000000000
00029DFD8100
005FC758FB00
04F800005E00
0DC000000900
4F5000000100
6F2000000000
7F2000000000
5F4000000000
1FB000000000
08FB30000000
00AFFDA98897
00049DEFFEB4
ENDCHAR
STARTCHAR Dcaron
ENCODING 270
SWIDTH 741 0
DWIDTH 21 0
BBX 20 22 0 -1
BITMAP
0000002CA201AE100000
000000018EAEF6000000
0000000007FC20000000
00257898634000000000
2CFFFFFFFFE930000000
6C631002FEAEFC400000
00000000BE006DF91000
000000008F00019FC100
000000005F200006FC10
000000003F4000006F90
000000000F6000000AF3
000000000E90000002F9
000000000DB0000000CC
000000000CD00000009E
000000000BF0000000BE
000000000AF2000001EC
0000000009F1000009F7
0000000007F100007FE1
000000041150002AFF40
0000001FFC857AFFE400
00000005CFFFFFD71000
00000000024441000000
ENDCHAR
STARTCHAR dcaron
ENCODING 271
SWIDTH 582 0
DWIDTH 16 0
BBX 16 22 0 0
BITMAP
0000000000000030
00000000000000F2
000000000A5000F7
000000000CE200F9
0000000009F800EB
0000000004FE00BC
0000000000EF307C
0000000000AF6013
00000000007FA000
0019EEB6003FC000
00CFFFFFD42FE000
08FE6227EFAFF100
0EF400001AFFF200
3FC00000009FF400
6F600000004FF500
7F400000006FF600
6F50000000CFF700
3F90000008FFF900
0DD000007FD9FA00
07F9003BFE20EC00
00CFEEFFB1007C00
001AEEA400000000
ENDCHAR
STARTCHAR Dcroat
ENCODING 272
SWIDTH 741 0
DWIDTH 21 0
BBX 20 19 0 -1
BITMAP
00257898630000000000
2CFFFFFFFFE930000000
6C631002FEAEFC400000
00000000BE006DF91000
000000008F00019FC100
000000005F200006FC10
000000003F4000006F90
000000000F6000000AF3
000000267EC8300002F9
000000EFFFFFE00000CC
000001863CE23000009E
000000000BF1000000BE
000000000AF2000001EC
0000000009F1000009F7
0000000007F100007FE1
000000041150002AFF40
0000001FFC857AFFE400
00000005CFFFFFD71000
00000000024441000000
ENDCHAR
STARTCHAR dcroat
ENCODING 273
SWIDTH 524 0
DWIDTH 15 0
BBX 15 21 0 0
BITMAP
0000000003000000
000000000CA00000
000000000CF40000
0000000008FA0000
000000046AFF9720
000000CFFFFFFFB0
0000028753BF8320
00000000008FA000
00038851004FC000
008FFFFE702FE000
05FFC88DFD5FF100
0CF800005EFFF300
2FD0000002CFF400
6F700000003FF500
7F500000005FF600
6F40000000BFF700
4F80000006FFF900
0ED000006FD8FA00
07F8002AFD20EC00
00CFEEFFB1006C00
001AEEA400000000
ENDCHAR
STARTCHAR Emacron
ENCODING 274
SWIDTH 524 0
DWIDTH 15 0
BBX 14 22 0 0
BITMAP
00000011200000
0001CFFFFF6000
0007EC978A7000
00000000000000
03543322222100
0FFFFFFFFFFF70
1FA66554443480
1F800000000000
1F800000000000
1F800000000000
1F800000001110
1F912368BDFE20
6FFFFFFDB96100
4F942100000000
3F300000000000
4F100000000000
6F100000000000
7F100000000000
7F100000000000
5F200000134540
1DECCDEFFFFFF4
02ADFFFFECA820
ENDCHAR
STARTCHAR emacron
ENCODING 275
SWIDTH 515 0
DWIDTH 14 0
BBX 14 19 0 0
BITMAP
00000011200000
0002CFFFFE5000
0007EC978A7000
00000000000000
00001575100000
0007FFDFD20000
00AF7103EC0000
06F500006F2000
0DA000002F4000
3F4000006F2000
6F200019FA0000
7F4758EFA10000
6F5EFDA3000000
4F500000000000
0EA00000000000
06F50000000000
00AFA400000000
0008FFFDBBDED3
000028CEFDA610
ENDCHAR
STARTCHAR Ebreve
ENCODING 276
SWIDTH 524 0
DWIDTH 15 0
BBX 14 22 0 0
BITMAP
00005300980000
00004D88E30000
000005AA400000
00000000000000
03543322222100
0FFFFFFFFFFF70
1FA66554443480
1F800000000000
1F800000000000
1F800000000000
1F800000001110
1F912368BDFE20
6FFFFFFDB96100
4F942100000000
3F300000000000
4F100000000000
6F100000000000
7F100000000000
7F100000000000
5F200000134540
1DECCDEFFFFFF4
02ADFFFFECA820
ENDCHAR
STARTCHAR ebreve
ENCODING 277
SWIDTH 515 0
DWIDTH 14 0
BBX 14 19 0 0
BITMAP
000007200C5000
000007C79E1000
0000007A920000
00000000000000
00001575100000
0007FFDFD20000
00AF7103EC0000
06F500006F2000
0DA000002F4000
3F4000006F2000
6F200019FA0000
7F4758EFA10000
6F5EFDA3000000
4F500000000000
0EA00000000000
06F50000000000
00AFA400000000
0008FFFDBBDED3
000028CEFDA610
ENDCHAR
STARTCHAR Edotaccent
ENCODING 278
SWIDTH 524 0
DWIDTH 15 0
BBX 14 22 0 0
BITMAP
00000052000000
000000FA000000
000000BA000000
00000001000000
03543322222100
0FFFFFFFFFFF70
1FA66554443480
1F800000000000
1F800000000000
1F800000000000
1F800000001110
1F912368BDFE20
6FFFFFFDB96100
4F942100000000
3F300000000000
4F100000000000
6F100000000000
7F100000000000
7F100000000000
5F200000134540
1DECCDEFFFFFF4
02ADFFFFECA820
ENDCHAR
STARTCHAR edotaccent
ENCODING 279
SWIDTH 515 0
DWIDTH 14 0
BBX 14 19 0 0
BITMAP
00000330000000
00000BE0000000
000007E0000000
00000010000000
00001575100000
0007FFDFD20000
00AF7103EC0000
06F500006F2000
0DA000002F4000
3F4000006F2000
6F200019FA0000
7F4758EFA10000
6F5EFDA3000000
4F500000000000
0EA00000000000
06F50000000000
00AFA400000000
0008FFFDBBDED3
000028CEFDA610
ENDCHAR
STARTCHAR Eogonek
ENCODING 280
SWIDTH 524 0
DWIDTH 15 0
BBX 14 22 0 -4
BITMAP
03543322222100
0FFFFFFFFFFF70
1FA66554443480
1F800000000000
1F800000000000
1F800000000000
1F800000001110
1F912368BDFE20
6FFFFFFDB96100
4F942100000000
3F300000000000
4F100000000000
6F100000000000
7F100000000000
7F100000000000
5F200000134540
1DECCDEFFFFFF4
02ADFFFFFFD820
00000005F70000
0000000AC00000
00000009F71000
000000018CEE90
ENDCHAR
STARTCHAR eogonek
ENCODING 281
SWIDTH 515 0
DWIDTH 14 0
BBX 14 19 0 -4
BITMAP
00001575100000
0007FFDFD20000
00AF7103EC0000
06F500006F2000
0DA000002F4000
3F4000006F2000
6F200019FA0000
7F4758EFA10000
6F5EFDA3000000
4F500000000000
0EA00000000000
06F50000000000
00AFA400000000
0008FFFDBBDED3
000028CEFFB610
0000000BD30000
0000000F700000
0000000DD52100
000000029CDD40
ENDCHAR
STARTCHAR Ecaron
ENCODING 282
SWIDTH 524 0
DWIDTH 15 0
BBX 14 21 0 0
BITMAP
0002CA202AE100
000018EAEE6000
0000007FC20000
03543336222100
0FFFFFFFFFFF70
1FA66554443480
1F800000000000
1F800000000000
1F800000000000
1F800000001110
1F912368BDFE20
6FFFFFFDB96100
4F942100000000
3F300000000000
4F100000000000
6F100000000000
7F100000000000
7F100000000000
5F200000134540
1DECCDEFFFFFF4
02ADFFFFECA820
ENDCHAR
STARTCHAR ecaron
ENCODING 283
SWIDTH 515 0
DWIDTH 14 0
BBX 14 19 0 0
BITMAP
0003D9202BE000
000019EAFE5000
0000009FB20000
00000014000000
00001575100000
0007FFDFD20000
00AF7103EC0000
06F500006F2000
0DA000002F4000
3F4000006F2000
6F200019FA0000
7F4758EFA10000
6F5EFDA3000000
4F500000000000
0EA00000000000
06F50000000000
00AFA400000000
0008FFFDBBDED3
000028CEFDA610
ENDCHAR
STARTCHAR Gcircumflex
ENCODING 284
SWIDTH 571 0
DWIDTH 16 0
BBX 16 25 0 -2
BITMAP
0000000001600000
0000000006F80000
000000000CFF6000
000000007FDFF400
00000008FA0AFD00
0000005FA000AF10
0000000200000300
0000000000000000
0000000002699500
00000005BFFEFF50
000003BE94101540
00007FA100000000
0009F60000000000
008F500000000000
03F7000410000100
0AD0000FFCDEFF50
0E80000488888EB0
1F50000000000BB0
0F50000000000CB0
0CB0000000004FB0
05FA20000027FFB0
008FFDBCCEFDBFB0
00049CCA73000EB0
0000000000000CE4
00000000000004D5
ENDCHAR
STARTCHAR gcircumflex
ENCODING 285
SWIDTH 366 0
DWIDTH 10 0
BBX 15 35 -4 -14
BITMAP
0000000026000000
000000007F700000
00000000DFF40000
00000009FDFE2000
000000AF81BFB000
000007F8001BE000
0000002000003000
0000000000000000
0000000000000000
0000000015720000
00000005EFFE2000
0000006F922DA000
000003F80007F100
00000BD00005F500
00002F600005F800
00006F200005FA00
00007F200008FB00
00005F70002EFC00
00000CF968EFFD00
000002CFFFB9FE00
000000046301FF00
000000000000CF00
000000000000AF00
0000000000008F10
0000000000007F10
0000000000005F20
0000000000005F30
5900000000005F30
AB00000000007F20
8E10000000009F00
2EC300000000DB00
04EFA4000005F700
002BFFD9525EE100
00004AFFFFFF7000
000000158A940000
ENDCHAR
STARTCHAR Gbreve
ENCODING 286
SWIDTH 571 0
DWIDTH 16 0
BBX 16 20 0 -2
BITMAP
0000063009700000
000004D89E300000
0000005A93000000
0000000002699500
00000005BFFEFF50
000003BE94101540
00007FA100000000
0009F60000000000
008F500000000000
03F7000410000100
0AD0000FFCDEFF50
0E80000488888EB0
1F50000000000BB0
0F50000000000CB0
0CB0000000004FB0
05FA20000027FFB0
008FFDBCCEFDBFB0
00049CCA73000EB0
0000000000000CE4
00000000000004D5
ENDCHAR
STARTCHAR gbreve
ENCODING 287
SWIDTH 366 0
DWIDTH 10 0
BBX 15 29 -4 -14
BITMAP
0000005400880000
0000004D88E40000
00000005AA400000
0000000015720000
00000005EFFE2000
0000006F922DA000
000003F80007F100
00000BD00005F500
00002F600005F800
00006F200005FA00
00007F200008FB00
00005F70002EFC00
00000CF968EFFD00
000002CFFFB9FE00
000000046301FF00
000000000000CF00
000000000000AF00
0000000000008F10
0000000000007F10
0000000000005F20
0000000000005F30
5900000000005F30
AB00000000007F20
8E10000000009F00
2EC300000000DB00
04EFA4000005F700
002BFFD9525EE100
00004AFFFFFF7000
000000158A940000
ENDCHAR
STARTCHAR Gdotaccent
ENCODING 288
SWIDTH 571 0
DWIDTH 16 0
BBX 16 20 0 -2
BITMAP
0000000005100000
000000002F800000
000000000D900000
0000000002699500
00000005BFFEFF50
000003BE94101540
00007FA100000000
0009F60000000000
008F500000000000
03F7000410000100
0AD0000FFCDEFF50
0E80000488888EB0
1F50000000000BB0
0F50000000000CB0
0CB0000000004FB0
05FA20000027FFB0
008FFDBCCEFDBFB0
00049CCA73000EB0
0000000000000CE4
00000000000004D5
ENDCHAR
STARTCHAR gdotaccent
ENCODING 289
SWIDTH 366 0
DWIDTH 10 0
BBX 15 30 -4 -14
BITMAP
0000000042000000
00000000EC000000
00000000AC000000
0000000001000000
0000000015720000
00000005EFFE2000
0000006F922DA000
000003F80007F100
00000BD00005F500
00002F600005F800
00006F200005FA00
00007F200008FB00
00005F70002EFC00
00000CF968EFFD00
000002CFFFB9FE00
000000046301FF00
000000000000CF00
000000000000AF00
0000000000008F10
0000000000007F10
0000000000005F20
0000000000005F30
5900000000005F30
AB00000000007F20
8E10000000009F00
2EC300000000DB00
04EFA4000005F700
002BFFD9525EE100
00004AFFFFFF7000
000000158A940000
ENDCHAR
STARTCHAR Gcommaaccent
ENCODING 290
SWIDTH 571 0
DWIDTH 16 0
BBX 16 24 0 -9
BITMAP
0000000002699500
00000005BFFEFF50
000003BE94101540
00007FA100000000
0009F60000000000
008F500000000000
03F7000410000100
0AD0000FFCDEFF50
0E80000488888EB0
1F50000000000BB0
0F50000000000CB0
0CB0000000004FB0
05FA20000027FFB0
008FFDBCCEFDBFB0
00049CCA73000EB0
0000000000000CE4
00000000000004D5
0000000100000000
0000000EA0000000
0000001DE0000000
00000009F0000000
0000000BE0000000
0000003FA0000000
0000002C20000000
ENDCHAR
STARTCHAR gcommaaccent
ENCODING 291
SWIDTH 366 0
DWIDTH 10 0
BBX 15 39 -4 -14
BITMAP
0000000030000000
00000000B6000000
00000000BB000000
00000000BD000000
00000000AF000000
000000007F100000
000000003F100000
0000000004000000
0000000000000000
0000000000000000
0000000000000000
0000000000000000
0000000000000000
0000000015720000
00000005EFFE2000
0000006F922DA000
000003F80007F100
00000BD00005F500
00002F600005F800
00006F200005FA00
00007F200008FB00
00005F70002EFC00
00000CF968EFFD00
000002CFFFB9FE00
000000046301FF00
000000000000CF00
000000000000AF00
0000000000008F10
0000000000007F10
0000000000005F20
0000000000005F30
5900000000005F30
AB00000000007F20
8E10000000009F00
2EC300000000DB00
04EFA4000005F700
002BFFD9525EE100
00004AFFFFFF7000
000000158A940000
ENDCHAR
STARTCHAR Hcircumflex
ENCODING 292
SWIDTH 524 0
DWIDTH 15 0
BBX 14 27 0 0
BITMAP
00000016000000
0000006F800000
000000CFF50000
000008FDFF3000
00009F90AFC000
0006F9000BF000
00002000003000
00000000000000
010000000002D1
0E2000000007D0
0E4000000007D0
0E5000000007D0
0D7000000008D0
0C9000000008D0
0BB000000008D0
09D00000003CE0
08E000003AFFE0
07F1004BFE8AF0
07F56CFE7107F0
09FFFD600006F1
7FFD50000005F2
03FA00000004F3
00EA00000003F5
00CA00000003F7
00AB00000001F8
009B00000000EB
0046000000008B
ENDCHAR
STARTCHAR hcircumflex
ENCODING 293
SWIDTH 427 0
DWIDTH 12 0
BBX 12 23 -1 0
BITMAP
000000160000
0000005F9000
000000BFF600
280007FDFF40
4F208FA09FD0
1F85FA000AF1
0DC020000030
09F200000000
05F500000000
03F700000000
00F927A83000
00DEFFFFF600
00BFE857DF30
009E10001CB0
008E000004F2
006F000000E6
005F200000CA
004F400000BC
003F600000CE
002F800000CE
001F900000DD
000FA00000EB
000B700000D6
ENDCHAR
STARTCHAR hbar
ENCODING 295
SWIDTH 427 0
DWIDTH 12 0
BBX 14 20 -3 0
BITMAP
00280000000000
004F2000000000
001F8000000000
000DC000000000
037DFA93000000
1EFFFFFE000000
2754F723000000
0000F927A83000
0000DEFFFFF600
0000BFE857DF30
00009E10001CB0
00008E000004F2
00006F000000E6
00005F200000CA
00004F400000BC
00003F600000CE
00002F800000CE
00001F900000DD
00000FA00000EB
00000B700000D6
ENDCHAR
STARTCHAR Itilde
ENCODING 296
SWIDTH 167 0
DWIDTH 5 0
BBX 11 20 -3 0
BITMAP
001100000100
06FFB3004E50
2F618FAAF700
4E0004BD6000
080420000000
0008A0000000
0005F1000000
0002F5000000
0000D9000000
00009D000000
00006F100000
00004F300000
00001F600000
00000F800000
00000DB00000
00000CD00000
00000AF00000
000008F20000
000006F30000
000002D20000
ENDCHAR
STARTCHAR itilde
ENCODING 297
SWIDTH 174 0
DWIDTH 5 0
BBX 11 19 -2 0
BITMAP
004400000310
0BEDC4008E30
4F206ECDE300
5C0002993000
050000000000
000000000000
000140000000
0004F1000000
0004F1000000
0004F2000000
0004F4000000
0003F7000000
0002FA000000
0001FC000000
0000FF000000
0000DF300000
0000AF400000
00007F500000
00002E200000
ENDCHAR
STARTCHAR imacron
ENCODING 299
SWIDTH 174 0
DWIDTH 5 0
BBX 8 17 -2 0
BITMAP
06BCDDC6
2FFDBBDD
14100000
00000000
00014000
0004F100
0004F100
0004F200
0004F400
0003F700
0002FA00
0001FC00
0000FF00
0000DF30
0000AF40
00007F50
00002E20
ENDCHAR
STARTCHAR Ibreve
ENCODING 300
SWIDTH 167 0
DWIDTH 5 0
BBX 6 21 0 0
BITMAP
9000E2
AB7BC0
18A810
000000
000000
420000
8A0000
5F1000
2F5000
0D9000
09D000
06F100
04F300
01F600
00F800
00DB00
00CD00
00AF00
008F20
006F30
002D20
ENDCHAR
STARTCHAR ibreve
ENCODING 301
SWIDTH 174 0
DWIDTH 5 0
BBX 6 17 -1 0
BITMAP
440068
3D77E5
05BB50
000000
001400
004F10
004F10
004F20
004F40
003F70
002FA0
001FC0
000FF0
000DF3
000AF4
0007F5
0002E2
ENDCHAR
STARTCHAR Iogonek
ENCODING 302
SWIDTH 167 0
DWIDTH 5 0
BBX 6 20 0 -4
BITMAP
420000
8A0000
5F1000
2F5000
0D9000
09D000
06F100
04F300
01F600
00F800
00DB00
00CD00
00AF00
008F20
007F30
1AFE20
9E5000
E70000
DD4100
3ADEE5
ENDCHAR
STARTCHAR iogonek
ENCODING 303
SWIDTH 174 0
DWIDTH 5 0
BBX 6 22 -1 -5
BITMAP
078000
07E200
000000
000000
001400
004F10
004F10
004F20
004F40
003F70
002FA0
001FC0
000FF0
000DF3
000AF4
0008F5
03BFE2
1EC300
5F2000
5F8100
07DFEC
000010
ENDCHAR
STARTCHAR Idotaccent
ENCODING 304
SWIDTH 167 0
DWIDTH 5 0
BBX 6 21 -1 0
BITMAP
151000
3F7000
1E7000
010000
000000
042000
08A000
05F100
02F500
00D900
009D00
006F10
004F30
001F60
000F80
000DB0
000CD0
000AF0
0008F2
0006F3
0002D2
ENDCHAR
STARTCHAR dotlessi
ENCODING 305
SWIDTH 174 0
DWIDTH 5 0
BBX 4 13 1 0
BITMAP
1400
4F10
4F10
4F20
4F40
3F70
2FA0
1FC0
0FF0
0DF3
0AF4
07F5
02E2
ENDCHAR
STARTCHAR Jcircumflex
ENCODING 308
SWIDTH 439 0
DWIDTH 12 0
BBX 13 28 0 0
BITMAP
00000000260000
000000007F7000
00000000DFF400
00000009FDFE30
0000009F81BFB0
000007F9001BE0
00000020000030
00000000000000
00000000070000
000000002F2000
000000000F6000
000000000DA000
000000000BD000
0000000009F000
0000000007F200
0000000005F500
0000000003F700
0000000000F800
1C10000000DA00
5F00000000CB00
3F40000000BC00
0BC0000000BC00
01D7000000CC00
002E500000CA00
0004E60000E800
00004F9103F500
000003DEACD000
00000018ED3000
ENDCHAR
STARTCHAR jcircumflex
ENCODING 309
SWIDTH 200 0
DWIDTH 6 0
BBX 11 34 -4 -13
BITMAP
000000430000
000000DE2000
000004FFD100
00002DEEFB00
0002DF33EF60
000CE4003E90
000110000220
000000000000
000000000000
000000000000
000000B60000
000000AC0000
0000009F2000
0000007F6000
0000004F9000
0000002FC000
0000000EF000
0000000BF300
00000008F600
00000005F800
00000002FA00
00000000FC00
00000000DE00
00000000BF00
1C1000008F20
0F7000007F30
0CE100005F30
07F700004F30
01EE10004F30
006FA0004F30
0009FA107F10
00009FEBFE00
000006EFF800
000000167100
ENDCHAR
STARTCHAR Kcommaaccent
ENCODING 310
SWIDTH 468 0
DWIDTH 13 0
BBX 13 26 0 -9
BITMAP
12000000330000
7B000009F40000
6E0000BF600000
5F100AF7000000
3F207F90000000
1F44FA00000000
0E7EB000000000
0CFD1000000000
0AF50000000000
0AFD1000000000
0AEFC100000000
0AC7FD20000000
0AC05EE5000000
09E002CF910000
08F10007FD4000
05F300003CFA10
01E20000008E50
00000000000000
00000000000000
00000010000000
000007F3000000
000006F7000000
000001F8000000
000003F7000000
00000AF3000000
00000790000000
ENDCHAR
STARTCHAR kcommaaccent
ENCODING 311
SWIDTH 403 0
DWIDTH 11 0
BBX 12 27 0 -9
BITMAP
100000000000
D00000000000
D50000000000
B90000000000
9D0000000000
6F1000058000
3F40006F8000
1F7002F80000
0DA00C800000
0BD2AA000000
09FFD1000000
07FF40000000
06FE00000000
06FF40000000
06FFE6000000
06F9AFD83000
08F105DFFFD1
07D00017BB80
000000000000
000000000000
000002000000
00005F500000
00005F900000
00000F900000
00001F800000
00008F400000
00006A000000
ENDCHAR
STARTCHAR Lacute
ENCODING 313
SWIDTH 346 0
DWIDTH 10 0
BBX 10 22 0 -1
BITMAP
0000000210
0000006E40
00000AF700
00009F6000
0000C50000
0000000000
04B0000000
09E0000000
0CD0000000
0EB0000000
0FA0000000
2F80000000
3F60000000
4F40000000
5F30000000
6F20000000
7F10000000
6F30000000
2FA1000000
09FFFDCB91
006CEFFFD2
0000001000
ENDCHAR
STARTCHAR lacute
ENCODING 314
SWIDTH 120 0
DWIDTH 3 0
BBX 5 23 -1 -1
BITMAP
000030
002BA0
04EC10
3FB100
6A0000
000000
02D100
03F500
03F600
03F700
04F700
04F800
04F800
04F900
04F900
04F900
04F900
03F900
03F900
01F800
00F700
00E400
001000
ENDCHAR
STARTCHAR Lcommaaccent
ENCODING 315
SWIDTH 346 0
DWIDTH 10 0
BBX 10 24 0 -9
BITMAP
04B0000000
09E0000000
0CD0000000
0EB0000000
0FA0000000
2F80000000
3F60000000
4F40000000
5F30000000
6F20000000
7F10000000
6F30000000
2FA1000000
09FFFDCB91
006CEFFFD2
0000001000
0000000000
0000100000
0002F80000
0003EC0000
0000BD0000
0000DC0000
0005F80000
0003C10000
ENDCHAR
STARTCHAR lcommaaccent
ENCODING 316
SWIDTH 120 0
DWIDTH 3 0
BBX 3 25 0 -9
BITMAP
2D10
3F50
3F60
3F70
4F70
4F80
4F80
4F90
4F90
4F90
4F90
3F90
3F90
1F80
0F70
0E40
0100
0000
0200
4F60
4FA0
0DA0
1E90
7F60
5A00
ENDCHAR
STARTCHAR Lcaron
ENCODING 317
SWIDTH 346 0
DWIDTH 10 0
BBX 10 22 0 -1
BITMAP
0000030000
00003E1000
00003F5000
00002F7000
00001F9000
00000EA000
04B00AA000
09E0013000
0CD0000000
0EB0000000
0FA0000000
2F80000000
3F60000000
4F40000000
5F30000000
6F20000000
7F10000000
6F30000000
2FA1000000
09FFFDCB91
006CEFFFD2
0000001000
ENDCHAR
STARTCHAR lcaron
ENCODING 318
SWIDTH 222 0
DWIDTH 6 0
BBX 6 22 0 -1
BITMAP
000030
0001F2
0001F6
0001F9
0000EA
2D10CB
3F508B
3F6013
3F7000
4F7000
4F8000
4F8000
4F9000
4F9000
4F9000
4F9000
3F9000
3F9000
1F8000
0F7000
0E4000
010000
ENDCHAR
STARTCHAR Ldot
ENCODING 319
SWIDTH 346 0
DWIDTH 10 0
BBX 10 16 0 -1
BITMAP
04B0000000
09E0000000
0CD0000000
0EB0000000
0FA0000000
2F80000000
3F60100000
4F44FD2000
5F3CFF7000
6F25FC2000
7F10000000
6F30000000
2FA1000000
09FFFDCB91
006CEFFFD2
0000001000
ENDCHAR
STARTCHAR ldot
ENCODING 320
SWIDTH 333 0
DWIDTH 9 0
BBX 9 17 0 -1
BITMAP
2D10000000
3F50000000
3F60000000
3F70000000
4F70000000
4F80000000
4F80000000
4F90001000
4F900AF900
4F903FFF10
4F900BF800
3F90000000
3F90000000
1F80000000
0F70000000
0E40000000
0100000000
ENDCHAR
STARTCHAR Lslash
ENCODING 321
SWIDTH 346 0
DWIDTH 10 0
BBX 11 16 0 0
BITMAP
000200000000
002F10000000
005F20000000
008F10000000
00AF00000000
00CD00000000
00EB00000000
00F930000000
01FDF5000000
06FFD2000000
8FFA10000000
6BF500000000
02F800000000
00CE74310000
003EFFFFFD50
00017ABCCA30
ENDCHAR
STARTCHAR lslash
ENCODING 322
SWIDTH 120 0
DWIDTH 3 0
BBX 7 17 -2 0
BITMAP
00040000
000E7000
000F9000
000FA000
000FA000
000FB000
000FC950
001FFFC0
007FE510
2BEFD000
DC2FD000
200FD000
000FD000
000ED000
000CC000
000BA000
00053000
ENDCHAR
STARTCHAR Nacute
ENCODING 323
SWIDTH 609 0
DWIDTH 17 0
BBX 17 20 0 0
BITMAP
000000000300000000
000000018E10000000
0000002CE400000000
000000DE3000000000
000002D20000000000
0C7000000000000000
0CB000000000C60000
0BF100000000DF3000
0AF5000000009FA000
0AFA000000002FF200
0BFE1000000008F700
0CFF7000000001EC00
0DFFD0000000009F10
0E84F6000000005F30
0F50AE100000005F50
2F601EB00000007F30
2F8005FA100000DE00
3F90007FD6324CF600
3FA00007FFFFFF8000
0D50000027AA830000
ENDCHAR
STARTCHAR nacute
ENCODING 324
SWIDTH 459 0
DWIDTH 13 0
BBX 13 20 0 0
BITMAP
00000002000000
000003C9000000
00006FB1000000
0004FA00000000
00079000000000
00000000000000
00000000000000
00000000000000
00004BEE800000
284BFCACFB0000
3FFD40009F7000
3FF300000CE100
3FC0000005F600
2FA0000000EC00
0FB0000000BF00
0EE00000008F30
0BF20000006F50
07F50000005F50
02F80000006F30
00690000006D00
ENDCHAR
STARTCHAR Ncommaaccent
ENCODING 325
SWIDTH 609 0
DWIDTH 17 0
BBX 17 24 0 -9
BITMAP
0C7000000000000000
0CB000000000C60000
0BF100000000DF3000
0AF5000000009FA000
0AFA000000002FF200
0BFE1000000008F700
0CFF7000000001EC00
0DFFD0000000009F10
0E84F6000000005F30
0F50AE100000005F50
2F601EB00000007F30
2F8005FA100000DE00
3F90007FD6324CF600
3FA00007FFFFFF8000
0D50000027AA830000
000000000000000000
000000000000000000
000000001000000000
00000007F300000000
00000006F700000000
00000001F800000000
00000003F700000000
0000000AF300000000
000000079000000000
ENDCHAR
STARTCHAR ncommaaccent
ENCODING 326
SWIDTH 459 0
DWIDTH 13 0
BBX 13 21 0 -9
BITMAP
00004BEE800000
284BFCACFB0000
3FFD40009F7000
3FF300000CE100
3FC0000005F600
2FA0000000EC00
0FB0000000BF00
0EE00000008F30
0BF20000006F50
07F50000005F50
02F80000006F30
00690000006D00
00000000000000
00000000000000
00000010000000
000009F2000000
000008F6000000
000003F6000000
000004F5000000
00000BF2000000
00000970000000
ENDCHAR
STARTCHAR Ncaron
ENCODING 327
SWIDTH 609 0
DWIDTH 17 0
BBX 17 21 0 0
BITMAP
00001BB4018E400000
0000006EADF8000000
00000004FD40000000
000000004100000000
000000000000000000
000000000000000000
0C7000000000000000
0CB000000000C60000
0BF100000000DF3000
0AF5000000009FA000
0AFA000000002FF200
0BFE1000000008F700
0CFF7000000001EC00
0DFFD0000000009F10
0E84F6000000005F30
0F50AE100000005F50
2F601EB00000007F30
2F8005FA100000DE00
3F90007FD6324CF600
3FA00007FFFFFF8000
0D50000027AA830000
ENDCHAR
STARTCHAR ncaron
ENCODING 328
SWIDTH 459 0
DWIDTH 13 0
BBX 13 17 0 0
BITMAP
001CA3019E2000
00017EAEF70000
000006FC300000
00000041000000
00000000000000
00004BEE800000
284BFCACFB0000
3FFD40009F7000
3FF300000CE100
3FC0000005F600
2FA0000000EC00
0FB0000000BF00
0EE00000008F30
0BF20000006F50
07F50000005F50
02F80000006F30
00690000006D00
ENDCHAR
STARTCHAR napostrophe
ENCODING 329
SWIDTH 459 0
DWIDTH 13 0
BBX 13 20 0 0
BITMAP
00010000000000
007F3000000000
007F7000000000
001F8000000000
003F7000000000
00AF3000000000
00880000000000
00000000000000
00004BEE800000
284BFCACFB0000
3FFD40009F7000
3FF300000CE100
3FC0000005F600
2FA0000000EC00
0FB0000000BF00
0EE00000008F30
0BF20000006F50
07F50000005F50
02F80000006F30
00690000006D00
ENDCHAR
STARTCHAR Omacron
ENCODING 332
SWIDTH 609 0
DWIDTH 17 0
BBX 17 20 0 0
BITMAP
000000001210000000
000007EFFFFC000000
00000FDA879B100000
000000000000000000
000000000000000000
000000000000000000
000158630000000000
004EFFFFD820000000
04FB3137BFF9100000
0DB0000003AFD30000
4F2000000005EE3000
7D00000000003ED100
7D000000000005F700
6E000000000000CD00
3F5000000000007F20
0DD100000000005F30
05FC1000000001CE00
009FD50000006DF500
0008FFD878BEFC4000
000028CEFDB7300000
ENDCHAR
STARTCHAR omacron
ENCODING 333
SWIDTH 487 0
DWIDTH 14 0
BBX 13 16 0 0
BITMAP
00000012100000
0004DFFFFE2000
000BEB879B4000
00000000000000
00005ADFE91000
002CFDABFFD100
02EC40002BFB00
0CC10000009F40
3F300000000D90
6E000000000BC0
7E000000000DC0
5F200000005FA0
1FA0000003EF40
09F900006FFA00
00AFEA9DFF9000
0005BEFDA40000
ENDCHAR
STARTCHAR Obreve
ENCODING 334
SWIDTH 609 0
DWIDTH 17 0
BBX 17 18 0 0
BITMAP
0000009001F0000000
000000BA7CB0000000
00000018A710000000
000000000000000000
000158630000000000
004EFFFFD820000000
04FB3137BFF9100000
0DB0000003AFD30000
4F2000000005EE3000
7D00000000003ED100
7D000000000005F700
6E000000000000CD00
3F5000000000007F20
0DD100000000005F30
05FC1000000001CE00
009FD50000006DF500
0008FFD878BEFC4000
000028CEFDB7300000
ENDCHAR
STARTCHAR obreve
ENCODING 335
SWIDTH 487 0
DWIDTH 14 0
BBX 13 17 0 0
BITMAP
0007200A600000
0006D89E200000
00006A93000000
00000000000000
00000000000000
00005ADFE91000
002CFDABFFD100
02EC40002BFB00
0CC10000009F40
3F300000000D90
6E000000000BC0
7E000000000DC0
5F200000005FA0
1FA0000003EF40
09F900006FFA00
00AFEA9DFF9000
0005BEFDA40000
ENDCHAR
STARTCHAR Ohungarumlaut
ENCODING 336
SWIDTH 609 0
DWIDTH 17 0
BBX 17 20 0 0
BITMAP
0000002A1030000000
000005EC19F3000000
00000EC1AF70000000
00001910E600000000
000000001000000000
000000000000000000
000158630000000000
004EFFFFD820000000
04FB3137BFF9100000
0DB0000003AFD30000
4F2000000005EE3000
7D00000000003ED100
7D000000000005F700
6E000000000000CD00
3F5000000000007F20
0DD100000000005F30
05FC1000000001CE00
009FD50000006DF500
0008FFD878BEFC4000
000028CEFDB7300000
ENDCHAR
STARTCHAR ohungarumlaut
ENCODING 337
SWIDTH 487 0
DWIDTH 14 0
BBX 13 16 0 0
BITMAP
00001940210000
0002DE36E80000
000AE35FB10000
0008309A000000
00005ADFE91000
002CFDABFFD100
02EC40002BFB00
0CC10000009F40
3F300000000D90
6E000000000BC0
7E000000000DC0
5F200000005FA0
1FA0000003EF40
09F900006FFA00
00AFEA9DFF9000
0005BEFDA40000
ENDCHAR
STARTCHAR OE
ENCODING 338
SWIDTH 848 0
DWIDTH 24 0
BBX 24 14 0 0
BITMAP
000169730003332222111100
005EFFFFC33FFFFFFFFEEE70
05FA2027FE7F611100000030
0DA000004FFF500000000000
4F20000009FF500000000000
7D00000002FF500001357710
7D00000000CFDBBDEFEC9400
6E000000009F843210000000
3F600000008F000000000000
0CE1000000AE000000000000
05FC200000DE000000000000
008FE60006FE000000000000
0007EFEA9FFF966789ABBCC2
000017BDDA35BDEFEEEDB940
ENDCHAR
STARTCHAR oe
ENCODING 339
SWIDTH 875 0
DWIDTH 25 0
BBX 24 15 0 -1
BITMAP
000000000000000467300000
00000000000003CFEEF70000
0000047883004EB3009F4000
0007EFFFFF80DB00000D9000
01BFA4128EFCF200000AB000
09E4000002CFB000001D9000
2F500000002F900004DE3000
6E000000000FC767CFE40000
7D000000000FCAEEB6000000
6F100000004FC00000000000
2F90000002EFF20000000000
0AF800005EFBDB1000000000
01BFD99DFFA13ED720000000
0006CEFEA40003DFFECBCDE7
0000000000000005ADEEC820
ENDCHAR
STARTCHAR Racute
ENCODING 340
SWIDTH 579 0
DWIDTH 16 0
BBX 17 25 -1 -2
BITMAP
000000000003000000
0000000001AD000000
000000003ED2000000
00000001ED20000000
00000004C100000000
000146776520000000
03CFFFFFFFFE810000
1ED63222347CFE4000
3F20000000005EE200
08004400000003E800
00009B00000001EA00
00009C0000005DF700
00008F10369EFF9000
00006FEFFFFD820000
00004FFC9520000000
00002FF30000000000
00000EFD1000000000
00000CADC100000000
000008B2DB10000000
000005E02DC1000000
000001F202CD300000
000000C5001BF80000
0000006300008FD400
00000000000004CF50
000000000000000200
ENDCHAR
STARTCHAR racute
ENCODING 341
SWIDTH 346 0
DWIDTH 10 0
BBX 10 19 0 0
BITMAP
0000002100
000005E500
00009F8000
0008F70000
000B600000
0000000000
0001688510
36AFEFFFE2
8FD40037A5
7F60000000
5F40000000
4F50000000
1F70000000
0DB0000000
09F1000000
05F6000000
01FA000000
00AD000000
003B000000
ENDCHAR
STARTCHAR Rcommaaccent
ENCODING 342
SWIDTH 579 0
DWIDTH 16 0
BBX 17 27 -1 -9
BITMAP
000146776520000000
03CFFFFFFFFE810000
1ED63222347CFE4000
3F20000000005EE200
08004400000003E800
00009B00000001EA00
00009C0000005DF700
00008F10369EFF9000
00006FEFFFFD820000
00004FFC9520000000
00002FF30000000000
00000EFD1000000000
00000CADC100000000
000008B2DB10000000
000005E02DC1000000
000001F202CD300000
000000C5001BF80000
0000006300008FD400
00000000000004CF50
000000000000000200
000000001100000000
00000000BE00000000
00000000BF30000000
000000005F40000000
000000007F30000000
00000000EE00000000
00000000B500000000
ENDCHAR
STARTCHAR rcommaaccent
ENCODING 343
SWIDTH 346 0
DWIDTH 10 0
BBX 10 22 0 -9
BITMAP
0001688510
36AFEFFFE2
8FD40037A5
7F60000000
5F40000000
4F50000000
1F70000000
0DB0000000
09F1000000
05F6000000
01FA000000
00AD000000
003B000000
0000000000
0000000000
0000100000
0002F80000
0003EC0000
0000BD0000
0000DC0000
0005F80000
0003C10000
ENDCHAR
STARTCHAR Rcaron
ENCODING 344
SWIDTH 579 0
DWIDTH 16 0
BBX 17 25 -1 -2
BITMAP
000006D7104CB00000
0000003BDAFD300000
00000000CF91000000
000000002300000000
000000000000000000
000146776520000000
03CFFFFFFFFE810000
1ED63222347CFE4000
3F20000000005EE200
08004400000003E800
00009B00000001EA00
00009C0000005DF700
00008F10369EFF9000
00006FEFFFFD820000
00004FFC9520000000
00002FF30000000000
00000EFD1000000000
00000CADC100000000
000008B2DB10000000
000005E02DC1000000
000001F202CD300000
000000C5001BF80000
0000006300008FD400
00000000000004CF50
000000000000000200
ENDCHAR
STARTCHAR rcaron
ENCODING 345
SWIDTH 346 0
DWIDTH 10 0
BBX 10 17 0 0
BITMAP
07C6005D90
003CCBFC20
0001DF8000
0000220000
0001688510
36AFEFFFE2
8FD40037A5
7F60000000
5F40000000
4F50000000
1F70000000
0DB0000000
09F1000000
05F6000000
01FA000000
00AD000000
003B000000
ENDCHAR
STARTCHAR Sacute
ENCODING 346
SWIDTH 627 0
DWIDTH 18 0
BBX 17 24 0 -1
BITMAP
000000000030000000
000000002BB0000000
00000004ED10000000
0000003FB100000000
0000005B1000000000
000000000000000000
00000159BCA8400000
00005EEA878DFD3000
0001F81000006EE100
0004F0000000015100
0003F4000000000000
0000BE300000000000
00001CF81000000000
0000006EE810000000
000000018EF9200000
00000000029FF81000
070000000002AFD300
4F200000000004DE20
4F6000000000002FA0
0CD100000000000FC0
01CD50000000004F90
0008EEA876567AFD10
000005ADFFFFFC7100
000000001332100000
ENDCHAR
STARTCHAR sacute
ENCODING 347
SWIDTH 514 0
DWIDTH 14 0
BBX 14 20 0 0
BITMAP
00000000030000
00000001BC0000
0000003ED20000
000002EC100000
000005B1000000
00000000000000
00000000000000
0016ABA7100000
03DFDBCFE30000
0DD40001AA0000
0E9000008B0000
0AD10000530000
02DE9632000000
0016BEFFFDA500
0000001347CFB0
000000000009F6
371000000004F9
2ED500000009F7
03DFDA9889DFC1
0016ACEFFEC710
ENDCHAR
STARTCHAR Scircumflex
ENCODING 348
SWIDTH 627 0
DWIDTH 18 0
BBX 17 26 0 -1
BITMAP
000000004300000000
00000000DE20000000
00000004FFD1000000
0000002DEEFB000000
000002DE33EF600000
00000CE4003E900000
000001100002200000
000000000000000000
00000159BCA8400000
00005EEA878DFD3000
0001F81000006EE100
0004F0000000015100
0003F4000000000000
0000BE300000000000
00001CF81000000000
0000006EE810000000
000000018EF9200000
00000000029FF81000
070000000002AFD300
4F200000000004DE20
4F6000000000002FA0
0CD100000000000FC0
01CD50000000004F90
0008EEA876567AFD10
000005ADFFFFFC7100
000000001332100000
ENDCHAR
STARTCHAR scircumflex
ENCODING 349
SWIDTH 514 0
DWIDTH 14 0
BBX 14 21 0 0
BITMAP
00000026000000
0000007F700000
000000DFF50000
000009FDFE3000
00009F91BFC000
0006F9001BF000
00002000003000
00000000000000
0016ABA7100000
03DFDBCFE30000
0DD40001AA0000
0E9000008B0000
0AD10000530000
02DE9632000000
0016BEFFFDA500
0000001347CFB0
000000000009F6
371000000004F9
2ED500000009F7
03DFDA9889DFC1
0016ACEFFEC710
ENDCHAR
STARTCHAR Scedilla
ENCODING 350
SWIDTH 627 0
DWIDTH 18 0
BBX 17 26 0 -9
BITMAP
00000159BCA8400000
00005EEA878DFD3000
0001F81000006EE100
0004F0000000015100
0003F4000000000000
0000BE300000000000
00001CF81000000000
0000006EE810000000
000000018EF9200000
00000000029FF81000
070000000002AFD300
4F200000000004DE20
4F6000000000002FA0
0CD100000000000FC0
01CD50000000004F90
0007EEA876567AFD10
000008EDFFFFFC7100
000007C01232100000
000005D00000000000
000001DA4100000000
00000029DFC5000000
0000000002AF200000
00000320001F600000
000006F6002F500000
0000008FCADA000000
000000048840000000
ENDCHAR
STARTCHAR scedilla
ENCODING 351
SWIDTH 514 0
DWIDTH 14 0
BBX 14 22 0 -9
BITMAP
0016ABA7100000
03DFDBCFE30000
0DD40001AA0000
0E9000008B0000
0AD10000530000
02DE9632000000
0016BEFFFDA500
0000001347CFB0
000000000009F6
371000000004F9
2ED500000009F7
03DFDA9889DFC1
0016EDEFFEC710
0000F400000000
0000E500000000
00008D62000000
000006CFE91000
000000005E9000
0001400009D000
0001DB100AC000
00003EEABE3000
00000178610000
ENDCHAR
STARTCHAR Scaron
ENCODING 352
SWIDTH 627 0
DWIDTH 18 0
BBX 17 22 0 -1
BITMAP
000009C5006D700000
0000004DBCFB100000
00000002EE60000000
000000003200000000
00000159BCA8400000
00005EEA878DFD3000
0001F81000006EE100
0004F0000000015100
0003F4000000000000
0000BE300000000000
00001CF81000000000
0000006EE810000000
000000018EF9200000
00000000029FF81000
070000000002AFD300
4F200000000004DE20
4F6000000000002FA0
0CD100000000000FC0
01CD50000000004F90
0008EEA876567AFD10
000005ADFFFFFC7100
000000001332100000
ENDCHAR
STARTCHAR scaron
ENCODING 353
SWIDTH 514 0
DWIDTH 14 0
BBX 14 17 0 0
BITMAP
0003D9202BE000
000019EAFE5000
0000009FB20000
00000014000000
0016ABA7100000
03DFDBCFE30000
0DD40001AA0000
0E9000008B0000
0AD10000530000
02DE9632000000
0016BEFFFDA500
0000001347CFB0
000000000009F6
371000000004F9
2ED500000009F7
03DFDA9889DFC1
0016ACEFFEC710
ENDCHAR
STARTCHAR Tcommaaccent
ENCODING 354
SWIDTH 581 0
DWIDTH 16 0
BBX 19 26 0 -8
BITMAP
56655544321000000000
8CEFFFFFFFFFECB85100
00024578AFA78BDFFF60
000000004F2000025740
000000003F3000000000
000000002F4000000000
000000001F5000000000
000000000F7000000000
000000000E9000000000
000000000DB000000000
000000000BD000000000
0000000009F000000000
0000000008F300000000
0000000006F500000000
0000000004F800000000
0000000002FC00000000
0000000000EF50000000
00000000006F80000000
00000000000000000000
00000000001100000000
0000000000EB00000000
0000000001DF00000000
00000000008F10000000
0000000000AF00000000
0000000002FB00000000
0000000001C300000000
ENDCHAR
STARTCHAR tcommaaccent
ENCODING 355
SWIDTH 328 0
DWIDTH 9 0
BBX 9 26 0 -9
BITMAP
0007D10000
0008F30000
0007F40000
0006F50000
0007F50000
0008F60000
8CEFFFFEB0
39CDFD9970
0005F60000
0005F70000
0006F80000
0005F80000
0005F80000
0004F90000
0002F90000
0000DA0000
0000570000
0000000000
0000000000
0000100000
0006F40000
0006F80000
0000F80000
0002F70000
0009F40000
0007900000
ENDCHAR
STARTCHAR Tcaron
ENCODING 356
SWIDTH 581 0
DWIDTH 16 0
BBX 19 21 0 0
BITMAP
00005D8103BC00000000
000002AEAFE400000000
0000000BFA1000000000
56655545621000000000
8CEFFFFFFFFFECB85100
00024578AFA78BDFFF60
000000004F2000025740
000000003F3000000000
000000002F4000000000
000000001F5000000000
000000000F7000000000
000000000E9000000000
000000000DB000000000
000000000BD000000000
0000000009F000000000
0000000008F300000000
0000000006F500000000
0000000004F800000000
0000000002FC00000000
0000000000EF50000000
00000000006F80000000
ENDCHAR
STARTCHAR tcaron
ENCODING 357
SWIDTH 431 0
DWIDTH 12 0
BBX 12 21 0 0
BITMAP
000000000030
0000000003E0
0000000003F4
0000000003F6
0007D10002F8
0008F30000E9
0007F40000A9
0006F5000023
0007F5000000
0008F6000000
8CEFFFFEB000
39CDFD997000
0005F6000000
0005F7000000
0006F8000000
0005F8000000
0005F8000000
0004F9000000
0002F9000000
0000DA000000
000057000000
ENDCHAR
STARTCHAR Utilde
ENCODING 360
SWIDTH 571 0
DWIDTH 16 0
BBX 16 20 0 0
BITMAP
0000020000001000
0001BFE81008E000
0008D23CD9CD2000
000A80007DB20000
0024500000000000
07F3000000057000
0E8000000009D000
2F200000000BF100
3F100000000AF200
3F1000000008F300
3F2000000005F400
1F4000000002F600
0E6000000000DA00
0C9000000000AE00
08D000000000CF50
03F500000005FFB0
00CD1000004EFFF1
005FC2003AFA3AF6
0009FFDEFE5002E8
00007DFD71000011
ENDCHAR
STARTCHAR utilde
ENCODING 361
SWIDTH 501 0
DWIDTH 14 0
BBX 14 19 0 0
BITMAP
00001100000100
0007FFA2004E40
003F519FAAF600
005D0004BC5000
00180000000000
01000000000000
3F200000000000
8F00000000A300
9D00000000F900
8E00000000FC00
6F10000000FD00
4F40000001FE00
1F80000002FF00
0BE1000008FF10
05F700003FFF50
00BF5003EC4EA0
002EFBAFC108F1
0002AEE91004F6
000000000001C7
ENDCHAR
STARTCHAR Umacron
ENCODING 362
SWIDTH 571 0
DWIDTH 16 0
BBX 16 20 0 0
BITMAP
0000000112000000
00002CFFFFE50000
00008EC978A60000
0000000000000000
0020000000000000
07F3000000057000
0E8000000009D000
2F200000000BF100
3F100000000AF200
3F1000000008F300
3F2000000005F400
1F4000000002F600
0E6000000000DA00
0C9000000000AE00
08D000000000CF50
03F500000005FFB0
00CD1000004EFFF1
005FC2003AFA3AF6
0009FFDEFE5002E8
00007DFD71000011
ENDCHAR
STARTCHAR umacron
ENCODING 363
SWIDTH 501 0
DWIDTH 14 0
BBX 14 18 0 0
BITMAP
00000012100000
0009EFFFF90000
003FDA88AA0000
00000000000000
01000000000000
3F200000000000
8F00000000A300
9D00000000F900
8E00000000FC00
6F10000000FD00
4F40000001FE00
1F80000002FF00
0BE1000008FF10
05F700003FFF50
00BF5003EC4EA0
002EFBAFC108F1
0002AEE91004F6
000000000001C7
ENDCHAR
STARTCHAR Ubreve
ENCODING 364
SWIDTH 571 0
DWIDTH 16 0
BBX 16 18 0 0
BITMAP
0000063009700000
000004D89E300000
0020005A93000000
07F3000000057000
0E8000000009D000
2F200000000BF100
3F100000000AF200
3F1000000008F300
3F2000000005F400
1F4000000002F600
0E6000000000DA00
0C9000000000AE00
08D000000000CF50
03F500000005FFB0
00CD1000004EFFF1
005FC2003AFA3AF6
0009FFDEFE5002E8
00007DFD71000011
ENDCHAR
STARTCHAR ubreve
ENCODING 365
SWIDTH 501 0
DWIDTH 14 0
BBX 14 17 0 0
BITMAP
00035006A00000
0002E88E600000
00003AA5000000
01000000000000
3F200000000000
8F00000000A300
9D00000000F900
8E00000000FC00
6F10000000FD00
4F40000001FE00
1F80000002FF00
0BE1000008FF10
05F700003FFF50
00BF5003EC4EA0
002EFBAFC108F1
0002AEE91004F6
000000000001C7
ENDCHAR
STARTCHAR Uring
ENCODING 366
SWIDTH 571 0
DWIDTH 16 0
BBX 16 20 0 0
BITMAP
0000008DD5000000
000009814E100000
00000C100C300000
000008838D000000
0020017A81000000
07F3000000057000
0E8000000009D000
2F200000000BF100
3F100000000AF200
3F1000000008F300
3F2000000005F400
1F4000000002F600
0E6000000000DA00
0C9000000000AE00
08D000000000CF50
03F500000005FFB0
00CD1000004EFFF1
005FC2003AFA3AF6
0009FFDEFE5002E8
00007DFD71000011
ENDCHAR
STARTCHAR uring
ENCODING 367
SWIDTH 501 0
DWIDTH 14 0
BBX 14 16 0 0
BITMAP
000007DD500000
00008814E10000
0100C100B30000
3F208838D00000
8F0007A810A300
9D00000000F900
8E00000000FC00
6F10000000FD00
4F40000001FE00
1F80000002FF00
0BE1000008FF10
05F700003FFF50
00BF5003EC4EA0
002EFBAFC108F1
0002AEE91004F6
000000000001C7
ENDCHAR
STARTCHAR Uhungarumlaut
ENCODING 368
SWIDTH 571 0
DWIDTH 16 0
BBX 16 20 0 0
BITMAP
0000007601200000
00001BF54EB00000
00007F53FC100000
00006507C1000000
0020000000000000
07F3000000057000
0E8000000009D000
2F200000000BF100
3F100000000AF200
3F1000000008F300
3F2000000005F400
1F4000000002F600
0E6000000000DA00
0C9000000000AE00
08D000000000CF50
03F500000005FFB0
00CD1000004EFFF1
005FC2003AFA3AF6
0009FFDEFE5002E8
00007DFD71000011
ENDCHAR
STARTCHAR uhungarumlaut
ENCODING 369
SWIDTH 501 0
DWIDTH 14 0
BBX 14 19 0 0
BITMAP
00000076012000
00001BF54DB000
00007F63FD2000
00006506C10000
00000000000000
01000000000000
3F200000000000
8F00000000A300
9D00000000F900
8E00000000FC00
6F10000000FD00
4F40000001FE00
1F80000002FF00
0BE1000008FF10
05F700003FFF50
00BF5003EC4EA0
002EFBAFC108F1
0002AEE91004F6
000000000001C7
ENDCHAR
STARTCHAR Uogonek
ENCODING 370
SWIDTH 571 0
DWIDTH 16 0
BBX 16 19 1 -5
BITMAP
1D70000000080000
8D200000004F2000
C8000000006F5000
D6000000006F7000
E6000000004F8000
D7000000001F8000
C8000000000DB000
AA0000000009E000
7D0000000006F300
4F2000000006F800
0E800000000CFE00
09E2000000AFFF50
02FC20004CE89FA0
007FFBADFC217FD0
0007EFFD601DE750
00001320008E2000
0000000000AC0000
00000000005FD865
0000000000025784
ENDCHAR
STARTCHAR uogonek
ENCODING 371
SWIDTH 501 0
DWIDTH 14 0
BBX 15 18 0 -4
BITMAP
0200000000000000
4F20000000000000
8F00000000B40000
9D00000000F90000
8E00000000FC0000
6F10000000FD0000
4F40000001FE0000
1F90000002FF0000
0BE1000008FF1000
04F800004FFF5000
00BF6004EC4EA000
002DFCAFC107F100
00019DE91019F600
0000000003EEB700
000000000BC10000
000000000E800000
000000000AFA6520
0000000000489930
ENDCHAR
STARTCHAR Wcircumflex
ENCODING 372
SWIDTH 703 0
DWIDTH 20 0
BBX 20 25 0 0
BITMAP
00000000043000000000
000000000CE200000000
000000003FFD10000000
00000001DEEFB0000000
0000002DF43EF6000000
000000CE4003E9000000
00000011000022000000
00000000000000000000
00000000000000000000
00000000000000000000
00000000000000000000
48000000000000025000
9B00000000000007F300
BC00000000000005FA00
BE00000000000001FF10
AF00000000000000AF50
9F100000900000004FA0
8F300001F50000000DD0
6F500001F800000009F1
3F700002FD00000007F2
0EB00007FF60000007F1
09E1003FFEE100001DC0
03FA26EE43ED3003CF40
008FFFD2003DFDDFF600
0006B9100001AEEA3000
ENDCHAR
STARTCHAR wcircumflex
ENCODING 373
SWIDTH 656 0
DWIDTH 18 0
BBX 18 21 0 0
BITMAP
000000002600000000
000000007F70000000
00000000DFF4000000
00000009FDFE300000
0000009F81BFB00000
000007F9001BE00000
000000200000300000
000000000000000000
000000000000000000
063000000000000000
1E6000000000000000
6F3000000000006A00
9F0000003C00001E70
BD0000006F200008E0
AD0000006F400003F4
8F1000007F600001F8
4F5000009F900001F9
0CB00003EFE10005F8
04F7006EFAFB325EF3
008FDEFF707FFFFF90
0005CEB40004888600
ENDCHAR
STARTCHAR Ycircumflex
ENCODING 374
SWIDTH 403 0
DWIDTH 11 0
BBX 11 26 0 -1
BITMAP
000005200000
00000ED10000
00006FFB0000
0003EDFF9000
004EE24FF400
00ED3005F700
002100002100
790000000000
6E10000007B0
3F9000000BB0
0BF500001E90
02EE40006F50
002DF700DF10
0002BFDBFB00
000006DFF500
0000001EE000
0000002F8000
0000007F3000
000000BC0000
000000F80000
000003F50000
000005F10000
000007F00000
000007F00000
000007F10000
000001500000
ENDCHAR
STARTCHAR ycircumflex
ENCODING 375
SWIDTH 487 0
DWIDTH 14 0
BBX 14 35 0 -14
BITMAP
00000043000000
000000CE200000
000003FFD10000
00001DEEFB0000
0002DF43EF6000
000CE4003E9000
00011000022000
00000000000000
00000000000300
58000000002B00
8A000000003E00
7D000000003F30
6F000000002F60
4F300000001F80
1F800000000FA0
0BD00000000FC0
04F50000005FD0
00BD200004EFF0
001DD5249FDDF1
0001BFFFE604F1
000004761001F2
000000000001F2
000000000002F2
000000000003F2
000000000004F1
000000000006F0
000000000008E0
00000000000AD0
03000000000CA0
0BA00000001F70
07F90000005F30
00CFB10000CC00
001BFE623BF500
00006DFFFF9000
00000058950000
ENDCHAR
STARTCHAR Ydieresis
ENCODING 376
SWIDTH 403 0
DWIDTH 11 0
BBX 11 23 0 -1
BITMAP
002A40087000
00BFE05FF400
006E802DC100
000000000000
790000000000
6E10000007B0
3F9000000BB0
0BF500001E90
02EE40006F50
002DF700DF10
0002BFDBFB00
000006DFF500
0000001EE000
0000002F8000
0000007F3000
000000BC0000
000000F80000
000003F50000
000005F10000
000007F00000
000007F00000
000007F10000
000001500000
ENDCHAR
STARTCHAR Zacute
ENCODING 377
SWIDTH 571 0
DWIDTH 16 0
BBX 16 24 0 0
BITMAP
0000000002000000
000000007E300000
0000001BF6000000
000000BF50000000
000000D400000000
0000000000000000
0025543000000000
2BFFFFFEA2000000
7E931027DE300000
000000001CC00000
0000000004F20000
0000000002F30000
0000000004F20000
0000000009D00000
000000038FE75300
00049CFFFFFFFF40
000DCBAEFE635100
0000000BE2000000
0000003F40000000
000001DA00000000
00000AF200000000
00003F9000158BD6
00003FD9ADFFFFC4
00000AFFFECA5100
ENDCHAR
STARTCHAR zacute
ENCODING 378
SWIDTH 459 0
DWIDTH 13 0
BBX 12 20 0 0
BITMAP
000000030000
0000019E1000
00002DE40000
0000DE300000
0002D2000000
001467620000
1AFFFFFF7000
6FA22228F300
15000002F700
00000002F600
00000007F200
0000001ED000
04689BDFED90
0DFFFFF97620
00007F900000
0004FB000000
001EE1000001
007FD10026BE
008FFEDEFFF9
0007CFEDA720
ENDCHAR
STARTCHAR Zdotaccent
ENCODING 379
SWIDTH 571 0
DWIDTH 16 0
BBX 16 22 0 0
BITMAP
0000015000000000
000005F500000000
000002E600000000
0000001000000000
0025543000000000
2BFFFFFEA2000000
7E931027DE300000
000000001CC00000
0000000004F20000
0000000002F30000
0000000004F20000
0000000009D00000
000000038FE75300
00049CFFFFFFFF40
000DCBAEFE635100
0000000BE2000000
0000003F40000000
000001DA00000000
00000AF200000000
00003F9000158BD6
00003FD9ADFFFFC4
00000AFFFECA5100
ENDCHAR
STARTCHAR zdotaccent
ENCODING 380
SWIDTH 459 0
DWIDTH 13 0
BBX 12 19 0 0
BITMAP
000001510000
000004F60000
000001E70000
000000100000
001467620000
1AFFFFFF7000
6FA22228F300
15000002F700
00000002F600
00000007F200
0000001ED000
04689BDFED90
0DFFFFF97620
00007F900000
0004FB000000
001EE1000001
007FD10026BE
008FFEDEFFF9
0007CFEDA720
ENDCHAR
STARTCHAR Zcaron
ENCODING 381
SWIDTH 571 0
DWIDTH 16 0
BBX 16 22 0 0
BITMAP
0007C7004CA00000
00003CCBFC200000
000001DF80000000
0000002300000000
0025543000000000
2BFFFFFEA2000000
7E931027DE300000
000000001CC00000
0000000004F20000
0000000002F30000
0000000004F20000
0000000009D00000
000000038FE75300
00049CFFFFFFFF40
000DCBAEFE635100
0000000BE2000000
0000003F40000000
000001DA00000000
00000AF200000000
00003F9000158BD6
00003FD9ADFFFFC4
00000AFFFECA5100
ENDCHAR
STARTCHAR zcaron
ENCODING 382
SWIDTH 459 0
DWIDTH 13 0
BBX 12 19 0 0
BITMAP
03C9202AE000
0019EAEE5000
00008FB20000
000014000000
001467620000
1AFFFFFF7000
6FA22228F300
15000002F700
00000002F600
00000007F200
0000001ED000
04689BDFED90
0DFFFFF97620
00007F900000
0004FB000000
001EE1000001
007FD10026BE
008FFEDEFFF9
0007CFEDA720
ENDCHAR
STARTCHAR florin
ENCODING 402
SWIDTH 376 0
DWIDTH 11 0
BBX 16 28 -3 -8
BITMAP
0000000028A94000
00000004EFEEFA10
0000001EE5007FC1
0000008F400007F7
000000DC00000045
000001F800000000
000004F600000000
000005F600000000
000006F600000000
000006F700000000
000005F800000000
0008CEFFFECB7000
002DA7EE79AA5000
000000BD00000000
000000BD00000000
000000BC00000000
000000CC00000000
000000DC00000000
000000DB00000000
000000EA00000000
000000FA00000000
000001F900000000
6A0002F800000000
4F8002F700000000
07F803F600000000
006FCBF600000000
0002BFF400000000
0000024000000000
ENDCHAR
STARTCHAR AEacute
ENCODING 508
SWIDTH 960 0
DWIDTH 27 0
BBX 27 25 0 0
BITMAP
0000000000000000300000000000
000000000000001BC00000000000
00000000000003ED200000000000
0000003420002EC1000000000000
00006EFFFC205B10000000000000
0008E6116DE30000000000000000
003F400001DD1000000000000000
009A0000003F7056554433332000
00D500000009D2FFFFFFFFFFF600
02F100000003F6F9554433223600
04D000000000CBF6000000000000
06B0000000008FF6000000000000
07A0000000005FF6000000000000
0890000000003FF6000000013100
0990000000002FF823579CEFD100
0AC6554321004FFFFFEDCA840000
5FFFDDDEFFFEEFF7210000000000
0BE1000002454DF1000000000000
07D0000000000BF0000000000000
07E0000000000AF0000000000000
07F10000000009F0000000000000
05F4000000000AF0000000000000
03F7000000000DF1000013466500
01F9000000001FFFDDEFFFFFFE20
0089000000001E79CEEEEDB96100
ENDCHAR
STARTCHAR aeacute
ENCODING 509
SWIDTH 881 0
DWIDTH 25 0
BBX 25 21 0 -1
BITMAP
00000000000000300000000000
00000000000007E20000000000
000000000001CF500000000000
00000000000CE4000000000000
00000000000D30000000000000
00000000000000000000000000
00005DD920000017BC92000000
0000ECBFF60004EE98EE200000
00002002BF604F91002EA00000
000000000BF3DC000008E00000
0000000002FEF4000006F00000
0002799741CFE000002DC00000
01AFFFDDFEEFD00017EE300000
0BFA400029FFE8CBFFB3000000
4F600000006FF5997300000000
7E0000000008F3000000000000
5F2000000001E9000000000000
0DE720000246BF800000000000
02CFFEDEFFFFCAFE8532234510
00059CEFEB72005DFFFFFFD500
00000000000000004799740000
ENDCHAR
STARTCHAR Oslashacute
ENCODING 510
SWIDTH 609 0
DWIDTH 17 0
BBX 17 23 0 -3
BITMAP
000000000600000000
00000002CD00000000
0000004ED200000000
000001EC1000000000
000001A10000000000
000000000033000000
0001586300A7000000
004EFFFFD8E5000000
04FB3137BFF9100000
0DB0000009EFD30000
4F2000000E65EE3000
7D0000005F103ED100
7D000000BB0005F700
6E000002F60000CD00
3F500008E100007F20
0DD1000EA000005F30
05FC105F400001CE00
009FD5BD00006DF500
0008FFFC78BEFC4000
00002DFFFDB7300000
00002F800000000000
00006E100000000000
000014000000000000
ENDCHAR
STARTCHAR oslashacute
ENCODING 511
SWIDTH 487 0
DWIDTH 14 0
BBX 13 17 0 0
BITMAP
00000002A10000
0000005EB00000
000007FA000000
00001F90000000
00000500000000
00000478734A00
0007EFFFFFEC00
01BFA4128EF800
09E400002EFF20
2F500000CE4E80
6E000009F60BC0
7D00005FA00CC0
6F1002ED104FA0
2F900CF402EF50
09F7AF605EFB00
01BFFE9DFFA100
002ECEFEA40000
ENDCHAR
STARTCHAR Scommaaccent
ENCODING 536
SWIDTH 627 0
DWIDTH 18 0
BBX 17 26 0 -9
BITMAP
00000159BCA8400000
00005EEA878DFD3000
0001F81000006EE100
0004F0000000015100
0003F4000000000000
0000BE300000000000
00001CF81000000000
0000006EE810000000
000000018EF9200000
00000000029FF81000
070000000002AFD300
4F200000000004DE20
4F6000000000002FA0
0CD100000000000FC0
01CD50000000004F90
0008EEA876567AFD10
000005ADFFFFFC7100
000000001332100000
000000000000000000
000000011000000000
0000000BE000000000
0000000BF300000000
00000005F400000000
00000007F300000000
0000000EE000000000
0000000B5000000000
ENDCHAR
STARTCHAR scommaaccent
ENCODING 537
SWIDTH 514 0
DWIDTH 14 0
BBX 14 22 0 -9
BITMAP
0016ABA7100000
03DFDBCFE30000
0DD40001AA0000
0E9000008B0000
0AD10000530000
02DE9632000000
0016BEFFFDA500
0000001347CFB0
000000000009F6
371000000004F9
2ED500000009F7
03DFDA9889DFC1
0016ACEFFEC710
00000000000000
00000000000000
00000011000000
000000CD000000
000000BF200000
0000006F300000
0000008F200000
000000FD000000
000000C4000000
ENDCHAR
STARTCHAR circumflex
ENCODING 710
SWIDTH 375 0
DWIDTH 11 0
BBX 8 7 1 14
BITMAP
00026000
0007F700
000DFF40
009FDFE2
0AF81BFB
7F8001BE
02000003
ENDCHAR
STARTCHAR caron
ENCODING 711
SWIDTH 375 0
DWIDTH 11 0
BBX 8 4 1 13
BITMAP
4D9102BD
02AEAFE4
000AFA10
00014000
ENDCHAR
STARTCHAR breve
ENCODING 728
SWIDTH 224 0
DWIDTH 6 0
BBX 6 3 0 11
BITMAP
45006A
2E88E6
03AA50
ENDCHAR
STARTCHAR dotaccent
ENCODING 729
SWIDTH 152 0
DWIDTH 4 0
BBX 3 4 1 12
BITMAP
3300
AF10
6F10
0100
ENDCHAR
STARTCHAR ring
ENCODING 730
SWIDTH 333 0
DWIDTH 9 0
BBX 6 5 2 11
BITMAP
04BE90
3C32B7
670059
2C34D4
04AA40
ENDCHAR
STARTCHAR ogonek
ENCODING 731
SWIDTH 254 0
DWIDTH 7 0
BBX 7 7 0 -5
BITMAP
00011000
019E8000
0BE50000
2F500000
2F910000
06DFDC20
00012200
ENDCHAR
STARTCHAR tilde
ENCODING 732
SWIDTH 402 0
DWIDTH 11 0
BBX 11 5 0 11
BITMAP
001100000100
08FFA2005E40
3F519FAAF600
5D0004BC5000
180000000000
ENDCHAR
STARTCHAR hungarumlaut
ENCODING 733
SWIDTH 264 0
DWIDTH 7 0
BBX 8 5 0 11
BITMAP
00490030
07FA1BF1
2FA0CF50
2901E400
00001000
ENDCHAR
STARTCHAR Wgrave
ENCODING 7808
SWIDTH 703 0
DWIDTH 20 0
BBX 20 20 0 0
BITMAP
00000000540000000000
000000005FA000000000
0000000006FB00000000
00000000004B10000000
00000000000000000000
00000000000000000000
48000000000000025000
9B00000000000007F300
BC00000000000005FA00
BE00000000000001FF10
AF00000000000000AF50
9F100000900000004FA0
8F300001F50000000DD0
6F500001F800000009F1
3F700002FD00000007F2
0EB00007FF60000007F1
09E1003FFEE100001DC0
03FA26EE43ED3003CF40
008FFFD2003DFDDFF600
0006B9100001AEEA3000
ENDCHAR
STARTCHAR wgrave
ENCODING 7809
SWIDTH 656 0
DWIDTH 18 0
BBX 18 16 0 0
BITMAP
000000026100000000
00000001ED30000000
000000003DE3000000
0000000002A4000000
063000000000000000
1E6000000000000000
6F3000000000006A00
9F0000003C00001E70
BD0000006F200008E0
AD0000006F400003F4
8F1000007F600001F8
4F5000009F900001F9
0CB00003EFE10005F8
04F7006EFAFB325EF3
008FDEFF707FFFFF90
0005CEB40004888600
ENDCHAR
STARTCHAR Wacute
ENCODING 7810
SWIDTH 703 0
DWIDTH 20 0
BBX 20 20 0 0
BITMAP
00000000002100000000
0000000005E500000000
000000009F8000000000
00000008F70000000000
0000000B600000000000
00000000000000000000
48000000000000025000
9B00000000000007F300
BC00000000000005FA00
BE00000000000001FF10
AF00000000000000AF50
9F100000900000004FA0
8F300001F50000000DD0
6F500001F800000009F1
3F700002FD00000007F2
0EB00007FF60000007F1
09E1003FFEE100001DC0
03FA26EE43ED3003CF40
008FFFD2003DFDDFF600
0006B9100001AEEA3000
ENDCHAR
STARTCHAR wacute
ENCODING 7811
SWIDTH 656 0
DWIDTH 18 0
BBX 18 19 0 0
BITMAP
000000000021000000
0000000006E4000000
00000000AF70000000
00000009F600000000
0000000C5000000000
000000000000000000
000000000000000000
063000000000000000
1E6000000000000000
6F3000000000006A00
9F0000003C00001E70
BD0000006F200008E0
AD0000006F400003F4
8F1000007F600001F8
4F5000009F900001F9
0CB00003EFE10005F8
04F7006EFAFB325EF3
008FDEFF707FFFFF90
0005CEB40004888600
ENDCHAR
STARTCHAR Wdieresis
ENCODING 7812
SWIDTH 703 0
DWIDTH 20 0
BBX 20 19 0 0
BITMAP
0000002A400780000000
000000AFE04FF5000000
0000005E801DC2000000
00000000000000000000
00000000000000000000
48000000000000025000
9B00000000000007F300
BC00000000000005FA00
BE00000000000001FF10
AF00000000000000AF50
9F100000900000004FA0
8F300001F50000000DD0
6F500001F800000009F1
3F700002FD00000007F2
0EB00007FF60000007F1
09E1003FFEE100001DC0
03FA26EE43ED3003CF40
008FFFD2003DFDDFF600
0006B9100001AEEA3000
ENDCHAR
STARTCHAR wdieresis
ENCODING 7813
SWIDTH 656 0
DWIDTH 18 0
BBX 18 15 0 0
BITMAP
000000870049200000
000005FF50EFA00000
000002DC109E500000
063000000000000000
1E6000000000000000
6F3000000000006A00
9F0000003C00001E70
BD0000006F200008E0
AD0000006F400003F4
8F1000007F600001F8
4F5000009F900001F9
0CB00003EFE10005F8
04F7006EFAFB325EF3
008FDEFF707FFFFF90
0005CEB40004888600
ENDCHAR
STARTCHAR Ygrave
ENCODING 7922
SWIDTH 403 0
DWIDTH 11 0
BBX 11 24 0 -1
BITMAP
000261000000
0001DE300000
00002DE30000
000001A50000
000000000000
790000000000
6E10000007B0
3F9000000BB0
0BF500001E90
02EE40006F50
002DF700DF10
0002BFDBFB00
000006DFF500
0000001EE000
0000002F8000
0000007F3000
000000BC0000
000000F80000
000003F50000
000005F10000
000007F00000
000007F00000
000007F10000
000001500000
ENDCHAR
STARTCHAR ygrave
ENCODING 7923
SWIDTH 487 0
DWIDTH 14 0
BBX 14 30 0 -14
BITMAP
00000540000000
000005FA000000
0000007FB00000
00000005B00300
58000000002B00
8A000000003E00
7D000000003F30
6F000000002F60
4F300000001F80
1F800000000FA0
0BD00000000FC0
04F50000005FD0
00BD200004EFF0
001DD5249FDDF1
0001BFFFE604F1
000004761001F2
000000000001F2
000000000002F2
000000000003F2
000000000004F1
000000000006F0
000000000008E0
00000000000AD0
03000000000CA0
0BA00000001F70
07F90000005F30
00CFB10000CC00
001BFE623BF500
00006DFFFF9000
00000058950000
ENDCHAR
STARTCHAR endash
ENCODING 8211
SWIDTH 287 0
DWIDTH 8 0
BBX 8 3 0 6
BITMAP
19BCDEC3
7FFCACE8
23000000
ENDCHAR
STARTCHAR emdash
ENCODING 8212
SWIDTH 512 0
DWIDTH 14 0
BBX 14 3 0 6
BITMAP
0158ABBCCCDDA1
4EFFFFEDCBBCE5
23221000000000
ENDCHAR
STARTCHAR quoteleft
ENCODING 8216
SWIDTH 102 0
DWIDTH 3 0
BBX 3 8 0 13
BITMAP
1200
7B00
7F10
6F30
5F50
3F60
0D60
0310
ENDCHAR
STARTCHAR quoteright
ENCODING 8217
SWIDTH 102 0
DWIDTH 3 0
BBX 3 8 0 13
BITMAP
1200
7B00
7F10
6F30
5F50
3F60
0D60
0310
ENDCHAR
STARTCHAR quotesinglbase
ENCODING 8218
SWIDTH 102 0
DWIDTH 3 0
BBX 3 7 0 -1
BITMAP
3800
5F10
5F40
4F60
2F70
0E80
0860
ENDCHAR
STARTCHAR quotedblleft
ENCODING 8220
SWIDTH 234 0
DWIDTH 7 0
BBX 6 10 0 13
BITMAP
000030
5200F1
A800F5
9D00F8
7F20FA
4F50EB
1F90DB
0BD0CC
03B19C
000012
ENDCHAR
STARTCHAR quotedblright
ENCODING 8221
SWIDTH 234 0
DWIDTH 7 0
BBX 6 10 0 13
BITMAP
000030
5200F1
A800F5
9D00F8
7F20FA
4F50EB
1F90DB
0BD0CC
03B19C
000012
ENDCHAR
STARTCHAR quotedblbase
ENCODING 8222
SWIDTH 341 0
DWIDTH 10 0
BBX 6 10 2 -4
BITMAP
000010
4004B0
E404F1
C904F4
AD03F6
8F13F7
5F52F8
1E91F8
08C0D9
000043
ENDCHAR
STARTCHAR dagger
ENCODING 8224
SWIDTH 375 0
DWIDTH 11 0
BBX 10 18 0 0
BITMAP
0005900000
0004D00000
0002F30000
0000D70000
00009A0000
00007D1100
07CFFFFFF6
4FEDBF98A8
01001F4000
00001F5000
00000F7000
00000F8000
00000F8000
00000F8000
00000E9000
00000D9000
00000DB000
00000B9000
ENDCHAR
STARTCHAR daggerdbl
ENCODING 8225
SWIDTH 375 0
DWIDTH 11 0
BBX 14 21 -2 0
BITMAP
000005C0000000
000007F2000000
000005F6000000
000002F8000000
000000DA000000
0000009C000000
0000006D000000
0145669F666640
6FFFFFFFFFEFF9
1345554F500187
0000000E500000
1567889EB9A950
2EFFFFFFFFFFD2
0000000C700000
0000000C700000
0000000C800000
0000000C800000
0000000C800000
0000000C900000
0000000CB00000
0000000B900000
ENDCHAR
STARTCHAR bullet
ENCODING 8226
SWIDTH 341 0
DWIDTH 10 0
BBX 5 6 3 4
BITMAP
09D600
7FFF50
EFFFB0
DFFFA0
5FFD20
045100
ENDCHAR
STARTCHAR ellipsis
ENCODING 8230
SWIDTH 612 0
DWIDTH 17 0
BBX 16 6 1 0
BITMAP
0220000310000300
1EE3004FC1008F90
7FFB00BFF601FFF2
BFFE00FFF904FFF5
8FFA00CFF501FFF2
1DB1004E90007E50
ENDCHAR
STARTCHAR guilsinglleft
ENCODING 8249
SWIDTH 487 0
DWIDTH 14 0
BBX 13 12 0 0
BITMAP
00000000000430
0000000003BF70
000000007FD400
0000002CF91000
000006ED400000
0001AF81000000
004ED300000000
06FB1000000000
6FF62000000000
AFFFFEC9741000
0158ACEFFFE600
0000000026CB00
ENDCHAR
STARTCHAR guilsinglright
ENCODING 8250
SWIDTH 403 0
DWIDTH 11 0
BBX 12 13 0 0
BITMAP
2D8000000000
0BFB30000000
007EFD720000
00017DFFDA60
00000037AFF1
000000005FE0
00000003EE40
0000006EE300
00001AFB1000
0004DF700000
008FD4000000
0BFA10000000
2E5000000000
ENDCHAR
STARTCHAR fraction
ENCODING 8260
SWIDTH 309 0
DWIDTH 9 0
BBX 9 21 0 0
BITMAP
0000000C10
0000004F20
0000007E00
000000AB00
000001E700
000005F300
00000BD000
00001F8000
00007F4000
0000CD0000
0002F90000
0008F40000
000DD00000
004F800000
009F300000
00EC000000
06F6000000
0DE1000000
5F80000000
9F20000000
8800000000
ENDCHAR
STARTCHAR Euro
ENCODING 8364
SWIDTH 741 0
DWIDTH 21 0
BBX 20 20 0 0
BITMAP
00000000000000266200
00000000000019FFEE10
000000000004EE820A20
00000000006E71000000
0000000009F700000000
00012235CFFFEB600000
4CFFFFFFFFDEFEF60000
DDA876BF810010100000
000000B9000000000000
000001F3000000000000
000006F43579ABA10000
02347DFFFFDB99600000
AFFFEFB5310000000000
22101F50000000000000
00000D60000000000000
00000A80000000000000
000007E0000000000000
000001E9000000369BDC
0000005FDA9ACEFFFEB4
00000003BEFFDB963000
ENDCHAR
STARTCHAR trademark
ENCODING 8482
SWIDTH 1116 0
DWIDTH 31 0
BBX 31 19 0 -1
BITMAP
22211000000000000100000000001000
BFFFFFFEEDCB98644F9000000002F400
013689ABDFDBCEFFFFF600000009F600
000000005F2000269CFE1000001EF500
000000004F30000000EF9000008FF400
000000003F30000000DFF70006FFF300
000000002F50000000EACFDCEFFFF200
000000000F70000000E819EFD939F300
000000000E80000000F800000004F400
000000000DB0000001F800000003F500
000000000BD0000001F800000002F800
000000000AF0000002F800000000FB00
0000000008F2000003F800000000ED00
0000000006F5000003F800000000CF10
0000000004F8000003F800000000BF30
0000000002FC000003F8000000009F50
0000000000EF500001F8000000007F60
00000000007F80000020000000005F60
00000000000000000000000000000100
ENDCHAR
STARTCHAR minus
ENCODING 8722
SWIDTH 287 0
DWIDTH 8 0
BBX 8 3 0 6
BITMAP
19BCDEC3
7FFCACE8
23000000
ENDCHAR
STARTCHAR commaaccent
ENCODING 63171
SWIDTH 375 0
DWIDTH 11 0
BBX 3 7 3 -9
BITMAP
0100
9F10
8F50
3F60
5F50
CF10
9700
ENDCHAR
STARTCHAR fi
ENCODING 64257
SWIDTH 551 0
DWIDTH 15 0
BBX 14 21 -1 -1
BITMAP
00000028A94000
000004EFEEFA10
00001ED4007FC1
00008E100307F7
0000D6000F8045
0001F200056000
0004F000000000
0005F100000000
0006F300007600
0006F50000AA00
0005F80000AA00
08CEFFFECBEC00
2DA7DFCCDDDE00
00006F80009F20
00000EC0008F50
000007F6006F80
000001EE105FB0
0000007FA03FC0
0000001EF40FE0
00000004E60BE0
00000000000350
ENDCHAR
STARTCHAR fl
ENCODING 64258
SWIDTH 723 0
DWIDTH 20 0
BBX 14 21 -1 -1
BITMAP
00000028A94000
000004EFEEFA10
00001ED4007FC1
00008E100007F7
0000D60001B145
0001F20001F600
0004F00001F800
0005F10002F900
0006F30002F900
0006F50002FA00
0005F80003FA00
08CEFFFECCFB00
2DA7DFCCDDFB00
00006F8003FB00
00000EC002FB00
000007F602FB00
000001EE11FB00
0000007FA0FA00
0000001EF4D900
00000004E6C600
00000000001000
ENDCHAR
STARTCHAR .notdef
ENCODING -1
SWIDTH 375 0
DWIDTH 11 0
BBX 1 1 0 0
BITMAP
00
ENDCHAR
STARTCHAR .null
ENCODING -1
SWIDTH 0 0
DWIDTH 0 0
BBX 1 1 0 0
BITMAP
00
ENDCHAR
STARTCHAR nonmarkingreturn
ENCODING -1
SWIDTH 375 0
DWIDTH 11 0
BBX 1 1 0 0
BITMAP
00
ENDCHAR
ENDFONT
